<mxfile host="app.diagrams.net" agent="Mozilla/5.0 (Windows NT 10.0; Win64; x64) AppleWebKit/537.36 (KHTML, like Gecko) Chrome/138.0.0.0 Safari/537.36 Edg/138.0.0.0" version="28.0.6">
  <diagram name="Page-1" id="5svEXqOCDcFB_yDbxjdx">
    <mxGraphModel dx="2795" dy="2250" grid="1" gridSize="10" guides="0" tooltips="1" connect="1" arrows="1" fold="1" page="1" pageScale="1" pageWidth="850" pageHeight="1100" math="0" shadow="0">
      <root>
        <mxCell id="0" />
        <mxCell id="1" parent="0" />
        <mxCell id="dDkFH5Ff9M02Oupnt17l-5" value="Client" style="shape=table;startSize=30;container=1;collapsible=1;childLayout=tableLayout;fixedRows=1;rowLines=0;fontStyle=1;align=center;resizeLast=1;html=1;labelBackgroundColor=none;fillColor=#21C0A5;strokeColor=#006658;fontColor=#5C5C5C;rounded=1;" vertex="1" parent="1">
          <mxGeometry x="80" y="150" width="180" height="150" as="geometry" />
        </mxCell>
        <mxCell id="dDkFH5Ff9M02Oupnt17l-6" value="" style="shape=tableRow;horizontal=0;startSize=0;swimlaneHead=0;swimlaneBody=0;fillColor=none;collapsible=0;dropTarget=0;points=[[0,0.5],[1,0.5]];portConstraint=eastwest;top=0;left=0;right=0;bottom=1;labelBackgroundColor=none;strokeColor=#006658;fontColor=#5C5C5C;" vertex="1" parent="dDkFH5Ff9M02Oupnt17l-5">
          <mxGeometry y="30" width="180" height="30" as="geometry" />
        </mxCell>
        <mxCell id="dDkFH5Ff9M02Oupnt17l-7" value="PK" style="shape=partialRectangle;connectable=0;fillColor=none;top=0;left=0;bottom=0;right=0;fontStyle=1;overflow=hidden;whiteSpace=wrap;html=1;labelBackgroundColor=none;strokeColor=#006658;fontColor=#5C5C5C;" vertex="1" parent="dDkFH5Ff9M02Oupnt17l-6">
          <mxGeometry width="30" height="30" as="geometry">
            <mxRectangle width="30" height="30" as="alternateBounds" />
          </mxGeometry>
        </mxCell>
        <mxCell id="dDkFH5Ff9M02Oupnt17l-8" value="UniqueID" style="shape=partialRectangle;connectable=0;fillColor=none;top=0;left=0;bottom=0;right=0;align=left;spacingLeft=6;fontStyle=5;overflow=hidden;whiteSpace=wrap;html=1;labelBackgroundColor=none;strokeColor=#006658;fontColor=#5C5C5C;" vertex="1" parent="dDkFH5Ff9M02Oupnt17l-6">
          <mxGeometry x="30" width="150" height="30" as="geometry">
            <mxRectangle width="150" height="30" as="alternateBounds" />
          </mxGeometry>
        </mxCell>
        <mxCell id="dDkFH5Ff9M02Oupnt17l-9" value="" style="shape=tableRow;horizontal=0;startSize=0;swimlaneHead=0;swimlaneBody=0;fillColor=none;collapsible=0;dropTarget=0;points=[[0,0.5],[1,0.5]];portConstraint=eastwest;top=0;left=0;right=0;bottom=0;labelBackgroundColor=none;strokeColor=#006658;fontColor=#5C5C5C;" vertex="1" parent="dDkFH5Ff9M02Oupnt17l-5">
          <mxGeometry y="60" width="180" height="30" as="geometry" />
        </mxCell>
        <mxCell id="dDkFH5Ff9M02Oupnt17l-10" value="FK" style="shape=partialRectangle;connectable=0;fillColor=none;top=0;left=0;bottom=0;right=0;editable=1;overflow=hidden;whiteSpace=wrap;html=1;labelBackgroundColor=none;strokeColor=#006658;fontColor=#5C5C5C;" vertex="1" parent="dDkFH5Ff9M02Oupnt17l-9">
          <mxGeometry width="30" height="30" as="geometry">
            <mxRectangle width="30" height="30" as="alternateBounds" />
          </mxGeometry>
        </mxCell>
        <mxCell id="dDkFH5Ff9M02Oupnt17l-11" value="Anag_Id" style="shape=partialRectangle;connectable=0;fillColor=none;top=0;left=0;bottom=0;right=0;align=left;spacingLeft=6;overflow=hidden;whiteSpace=wrap;html=1;labelBackgroundColor=none;strokeColor=#006658;fontColor=#5C5C5C;" vertex="1" parent="dDkFH5Ff9M02Oupnt17l-9">
          <mxGeometry x="30" width="150" height="30" as="geometry">
            <mxRectangle width="150" height="30" as="alternateBounds" />
          </mxGeometry>
        </mxCell>
        <mxCell id="dDkFH5Ff9M02Oupnt17l-12" value="" style="shape=tableRow;horizontal=0;startSize=0;swimlaneHead=0;swimlaneBody=0;fillColor=none;collapsible=0;dropTarget=0;points=[[0,0.5],[1,0.5]];portConstraint=eastwest;top=0;left=0;right=0;bottom=0;labelBackgroundColor=none;strokeColor=#006658;fontColor=#5C5C5C;" vertex="1" parent="dDkFH5Ff9M02Oupnt17l-5">
          <mxGeometry y="90" width="180" height="30" as="geometry" />
        </mxCell>
        <mxCell id="dDkFH5Ff9M02Oupnt17l-13" value="&lt;div style=&quot;line-height: 50%;&quot;&gt;&lt;div style=&quot;&quot;&gt;&lt;br&gt;&lt;/div&gt;&lt;span style=&quot;color: rgb(92, 92, 92); font-family: Helvetica; font-size: 12px; font-style: normal; font-variant-ligatures: normal; font-variant-caps: normal; font-weight: 400; letter-spacing: normal; orphans: 2; text-indent: 0px; text-transform: none; widows: 2; word-spacing: 0px; -webkit-text-stroke-width: 0px; white-space: normal; background-color: rgb(236, 236, 236); text-decoration-thickness: initial; text-decoration-style: initial; text-decoration-color: initial; float: none; display: inline !important;&quot;&gt;&lt;div&gt;&lt;span style=&quot;background-color: light-dark(rgb(236, 236, 236), rgb(34, 34, 34)); color: light-dark(rgb(92, 92, 92), rgb(158, 158, 158));&quot;&gt;FK&lt;/span&gt;&lt;/div&gt;&lt;/span&gt;&lt;div style=&quot;&quot;&gt;&lt;/div&gt;&lt;/div&gt;" style="shape=partialRectangle;connectable=0;fillColor=none;top=0;left=0;bottom=0;right=0;editable=1;overflow=hidden;whiteSpace=wrap;html=1;labelBackgroundColor=none;strokeColor=#006658;fontColor=#5C5C5C;align=center;" vertex="1" parent="dDkFH5Ff9M02Oupnt17l-12">
          <mxGeometry width="30" height="30" as="geometry">
            <mxRectangle width="30" height="30" as="alternateBounds" />
          </mxGeometry>
        </mxCell>
        <mxCell id="dDkFH5Ff9M02Oupnt17l-14" value="VehicleAss" style="shape=partialRectangle;connectable=0;fillColor=none;top=0;left=0;bottom=0;right=0;align=left;spacingLeft=6;overflow=hidden;whiteSpace=wrap;html=1;labelBackgroundColor=none;strokeColor=#006658;fontColor=#5C5C5C;" vertex="1" parent="dDkFH5Ff9M02Oupnt17l-12">
          <mxGeometry x="30" width="150" height="30" as="geometry">
            <mxRectangle width="150" height="30" as="alternateBounds" />
          </mxGeometry>
        </mxCell>
        <mxCell id="dDkFH5Ff9M02Oupnt17l-15" value="" style="shape=tableRow;horizontal=0;startSize=0;swimlaneHead=0;swimlaneBody=0;fillColor=none;collapsible=0;dropTarget=0;points=[[0,0.5],[1,0.5]];portConstraint=eastwest;top=0;left=0;right=0;bottom=0;labelBackgroundColor=none;strokeColor=#006658;fontColor=#5C5C5C;" vertex="1" parent="dDkFH5Ff9M02Oupnt17l-5">
          <mxGeometry y="120" width="180" height="30" as="geometry" />
        </mxCell>
        <mxCell id="dDkFH5Ff9M02Oupnt17l-16" value="" style="shape=partialRectangle;connectable=0;fillColor=none;top=0;left=0;bottom=0;right=0;editable=1;overflow=hidden;whiteSpace=wrap;html=1;labelBackgroundColor=none;strokeColor=#006658;fontColor=#5C5C5C;" vertex="1" parent="dDkFH5Ff9M02Oupnt17l-15">
          <mxGeometry width="30" height="30" as="geometry">
            <mxRectangle width="30" height="30" as="alternateBounds" />
          </mxGeometry>
        </mxCell>
        <mxCell id="dDkFH5Ff9M02Oupnt17l-17" value="" style="shape=partialRectangle;connectable=0;fillColor=none;top=0;left=0;bottom=0;right=0;align=left;spacingLeft=6;overflow=hidden;whiteSpace=wrap;html=1;labelBackgroundColor=none;strokeColor=#006658;fontColor=#5C5C5C;" vertex="1" parent="dDkFH5Ff9M02Oupnt17l-15">
          <mxGeometry x="30" width="150" height="30" as="geometry">
            <mxRectangle width="150" height="30" as="alternateBounds" />
          </mxGeometry>
        </mxCell>
        <mxCell id="dDkFH5Ff9M02Oupnt17l-18" value="Vehicle" style="shape=table;startSize=30;container=1;collapsible=1;childLayout=tableLayout;fixedRows=1;rowLines=0;fontStyle=1;align=center;resizeLast=1;html=1;labelBackgroundColor=none;fillColor=#21C0A5;strokeColor=#006658;fontColor=#5C5C5C;rounded=1;" vertex="1" parent="1">
          <mxGeometry x="80" y="380" width="180" height="190" as="geometry" />
        </mxCell>
        <mxCell id="dDkFH5Ff9M02Oupnt17l-19" value="" style="shape=tableRow;horizontal=0;startSize=0;swimlaneHead=0;swimlaneBody=0;fillColor=none;collapsible=0;dropTarget=0;points=[[0,0.5],[1,0.5]];portConstraint=eastwest;top=0;left=0;right=0;bottom=1;labelBackgroundColor=none;strokeColor=#006658;fontColor=#5C5C5C;" vertex="1" parent="dDkFH5Ff9M02Oupnt17l-18">
          <mxGeometry y="30" width="180" height="30" as="geometry" />
        </mxCell>
        <mxCell id="dDkFH5Ff9M02Oupnt17l-20" value="PK" style="shape=partialRectangle;connectable=0;fillColor=none;top=0;left=0;bottom=0;right=0;fontStyle=1;overflow=hidden;whiteSpace=wrap;html=1;labelBackgroundColor=none;strokeColor=#006658;fontColor=#5C5C5C;" vertex="1" parent="dDkFH5Ff9M02Oupnt17l-19">
          <mxGeometry width="30" height="30" as="geometry">
            <mxRectangle width="30" height="30" as="alternateBounds" />
          </mxGeometry>
        </mxCell>
        <mxCell id="dDkFH5Ff9M02Oupnt17l-21" value="Id" style="shape=partialRectangle;connectable=0;fillColor=none;top=0;left=0;bottom=0;right=0;align=left;spacingLeft=6;fontStyle=5;overflow=hidden;whiteSpace=wrap;html=1;labelBackgroundColor=none;strokeColor=#006658;fontColor=#5C5C5C;" vertex="1" parent="dDkFH5Ff9M02Oupnt17l-19">
          <mxGeometry x="30" width="150" height="30" as="geometry">
            <mxRectangle width="150" height="30" as="alternateBounds" />
          </mxGeometry>
        </mxCell>
        <mxCell id="dDkFH5Ff9M02Oupnt17l-22" value="" style="shape=tableRow;horizontal=0;startSize=0;swimlaneHead=0;swimlaneBody=0;fillColor=none;collapsible=0;dropTarget=0;points=[[0,0.5],[1,0.5]];portConstraint=eastwest;top=0;left=0;right=0;bottom=0;labelBackgroundColor=none;strokeColor=#006658;fontColor=#5C5C5C;" vertex="1" parent="dDkFH5Ff9M02Oupnt17l-18">
          <mxGeometry y="60" width="180" height="30" as="geometry" />
        </mxCell>
        <mxCell id="dDkFH5Ff9M02Oupnt17l-23" value="FK" style="shape=partialRectangle;connectable=0;fillColor=none;top=0;left=0;bottom=0;right=0;editable=1;overflow=hidden;whiteSpace=wrap;html=1;labelBackgroundColor=none;strokeColor=#006658;fontColor=#5C5C5C;" vertex="1" parent="dDkFH5Ff9M02Oupnt17l-22">
          <mxGeometry width="30" height="30" as="geometry">
            <mxRectangle width="30" height="30" as="alternateBounds" />
          </mxGeometry>
        </mxCell>
        <mxCell id="dDkFH5Ff9M02Oupnt17l-24" value="AnagV" style="shape=partialRectangle;connectable=0;fillColor=none;top=0;left=0;bottom=0;right=0;align=left;spacingLeft=6;overflow=hidden;whiteSpace=wrap;html=1;labelBackgroundColor=none;strokeColor=#006658;fontColor=#5C5C5C;" vertex="1" parent="dDkFH5Ff9M02Oupnt17l-22">
          <mxGeometry x="30" width="150" height="30" as="geometry">
            <mxRectangle width="150" height="30" as="alternateBounds" />
          </mxGeometry>
        </mxCell>
        <mxCell id="dDkFH5Ff9M02Oupnt17l-25" value="" style="shape=tableRow;horizontal=0;startSize=0;swimlaneHead=0;swimlaneBody=0;fillColor=none;collapsible=0;dropTarget=0;points=[[0,0.5],[1,0.5]];portConstraint=eastwest;top=0;left=0;right=0;bottom=0;labelBackgroundColor=none;strokeColor=#006658;fontColor=#5C5C5C;" vertex="1" parent="dDkFH5Ff9M02Oupnt17l-18">
          <mxGeometry y="90" width="180" height="30" as="geometry" />
        </mxCell>
        <mxCell id="dDkFH5Ff9M02Oupnt17l-26" value="" style="shape=partialRectangle;connectable=0;fillColor=none;top=0;left=0;bottom=0;right=0;editable=1;overflow=hidden;whiteSpace=wrap;html=1;labelBackgroundColor=none;strokeColor=#006658;fontColor=#5C5C5C;" vertex="1" parent="dDkFH5Ff9M02Oupnt17l-25">
          <mxGeometry width="30" height="30" as="geometry">
            <mxRectangle width="30" height="30" as="alternateBounds" />
          </mxGeometry>
        </mxCell>
        <mxCell id="dDkFH5Ff9M02Oupnt17l-27" value="StoryClaim" style="shape=partialRectangle;connectable=0;fillColor=none;top=0;left=0;bottom=0;right=0;align=left;spacingLeft=6;overflow=hidden;whiteSpace=wrap;html=1;labelBackgroundColor=none;strokeColor=#006658;fontColor=#5C5C5C;" vertex="1" parent="dDkFH5Ff9M02Oupnt17l-25">
          <mxGeometry x="30" width="150" height="30" as="geometry">
            <mxRectangle width="150" height="30" as="alternateBounds" />
          </mxGeometry>
        </mxCell>
        <mxCell id="dDkFH5Ff9M02Oupnt17l-28" value="" style="shape=tableRow;horizontal=0;startSize=0;swimlaneHead=0;swimlaneBody=0;fillColor=none;collapsible=0;dropTarget=0;points=[[0,0.5],[1,0.5]];portConstraint=eastwest;top=0;left=0;right=0;bottom=0;labelBackgroundColor=none;strokeColor=#006658;fontColor=#5C5C5C;" vertex="1" parent="dDkFH5Ff9M02Oupnt17l-18">
          <mxGeometry y="120" width="180" height="30" as="geometry" />
        </mxCell>
        <mxCell id="dDkFH5Ff9M02Oupnt17l-29" value="" style="shape=partialRectangle;connectable=0;fillColor=none;top=0;left=0;bottom=0;right=0;editable=1;overflow=hidden;whiteSpace=wrap;html=1;labelBackgroundColor=none;strokeColor=#006658;fontColor=#5C5C5C;" vertex="1" parent="dDkFH5Ff9M02Oupnt17l-28">
          <mxGeometry width="30" height="30" as="geometry">
            <mxRectangle width="30" height="30" as="alternateBounds" />
          </mxGeometry>
        </mxCell>
        <mxCell id="dDkFH5Ff9M02Oupnt17l-30" value="Category" style="shape=partialRectangle;connectable=0;fillColor=none;top=0;left=0;bottom=0;right=0;align=left;spacingLeft=6;overflow=hidden;whiteSpace=wrap;html=1;labelBackgroundColor=none;strokeColor=#006658;fontColor=#5C5C5C;" vertex="1" parent="dDkFH5Ff9M02Oupnt17l-28">
          <mxGeometry x="30" width="150" height="30" as="geometry">
            <mxRectangle width="150" height="30" as="alternateBounds" />
          </mxGeometry>
        </mxCell>
        <mxCell id="dDkFH5Ff9M02Oupnt17l-252" style="shape=tableRow;horizontal=0;startSize=0;swimlaneHead=0;swimlaneBody=0;fillColor=none;collapsible=0;dropTarget=0;points=[[0,0.5],[1,0.5]];portConstraint=eastwest;top=0;left=0;right=0;bottom=0;labelBackgroundColor=none;strokeColor=#006658;fontColor=#5C5C5C;" vertex="1" parent="dDkFH5Ff9M02Oupnt17l-18">
          <mxGeometry y="150" width="180" height="20" as="geometry" />
        </mxCell>
        <mxCell id="dDkFH5Ff9M02Oupnt17l-253" value="FK" style="shape=partialRectangle;connectable=0;fillColor=none;top=0;left=0;bottom=0;right=0;editable=1;overflow=hidden;whiteSpace=wrap;html=1;labelBackgroundColor=none;strokeColor=#006658;fontColor=#5C5C5C;" vertex="1" parent="dDkFH5Ff9M02Oupnt17l-252">
          <mxGeometry width="30" height="20" as="geometry">
            <mxRectangle width="30" height="20" as="alternateBounds" />
          </mxGeometry>
        </mxCell>
        <mxCell id="dDkFH5Ff9M02Oupnt17l-254" value="Policy" style="shape=partialRectangle;connectable=0;fillColor=none;top=0;left=0;bottom=0;right=0;align=left;spacingLeft=6;overflow=hidden;whiteSpace=wrap;html=1;labelBackgroundColor=none;strokeColor=#006658;fontColor=#5C5C5C;" vertex="1" parent="dDkFH5Ff9M02Oupnt17l-252">
          <mxGeometry x="30" width="150" height="20" as="geometry">
            <mxRectangle width="150" height="20" as="alternateBounds" />
          </mxGeometry>
        </mxCell>
        <mxCell id="dDkFH5Ff9M02Oupnt17l-362" style="shape=tableRow;horizontal=0;startSize=0;swimlaneHead=0;swimlaneBody=0;fillColor=none;collapsible=0;dropTarget=0;points=[[0,0.5],[1,0.5]];portConstraint=eastwest;top=0;left=0;right=0;bottom=0;labelBackgroundColor=none;strokeColor=#006658;fontColor=#5C5C5C;" vertex="1" parent="dDkFH5Ff9M02Oupnt17l-18">
          <mxGeometry y="170" width="180" height="20" as="geometry" />
        </mxCell>
        <mxCell id="dDkFH5Ff9M02Oupnt17l-363" style="shape=partialRectangle;connectable=0;fillColor=none;top=0;left=0;bottom=0;right=0;editable=1;overflow=hidden;whiteSpace=wrap;html=1;labelBackgroundColor=none;strokeColor=#006658;fontColor=#5C5C5C;" vertex="1" parent="dDkFH5Ff9M02Oupnt17l-362">
          <mxGeometry width="30" height="20" as="geometry">
            <mxRectangle width="30" height="20" as="alternateBounds" />
          </mxGeometry>
        </mxCell>
        <mxCell id="dDkFH5Ff9M02Oupnt17l-364" value="LicensePlate" style="shape=partialRectangle;connectable=0;fillColor=none;top=0;left=0;bottom=0;right=0;align=left;spacingLeft=6;overflow=hidden;whiteSpace=wrap;html=1;labelBackgroundColor=none;strokeColor=#006658;fontColor=#5C5C5C;" vertex="1" parent="dDkFH5Ff9M02Oupnt17l-362">
          <mxGeometry x="30" width="150" height="20" as="geometry">
            <mxRectangle width="150" height="20" as="alternateBounds" />
          </mxGeometry>
        </mxCell>
        <mxCell id="dDkFH5Ff9M02Oupnt17l-31" value="" style="edgeStyle=entityRelationEdgeStyle;fontSize=12;html=1;endArrow=ERoneToMany;rounded=0;entryX=1;entryY=0.5;entryDx=0;entryDy=0;labelBackgroundColor=none;strokeColor=#006658;fontColor=default;" edge="1" parent="1" source="dDkFH5Ff9M02Oupnt17l-12" target="dDkFH5Ff9M02Oupnt17l-19">
          <mxGeometry width="100" height="100" relative="1" as="geometry">
            <mxPoint x="350" y="390" as="sourcePoint" />
            <mxPoint x="450" y="290" as="targetPoint" />
            <Array as="points">
              <mxPoint x="40" y="250" />
              <mxPoint x="60" y="260" />
              <mxPoint x="40" y="270" />
              <mxPoint x="50" y="240" />
              <mxPoint x="10" y="290" />
              <mxPoint x="70" y="340" />
            </Array>
          </mxGeometry>
        </mxCell>
        <mxCell id="dDkFH5Ff9M02Oupnt17l-32" value="AnagV" style="shape=table;startSize=30;container=1;collapsible=1;childLayout=tableLayout;fixedRows=1;rowLines=0;fontStyle=1;align=center;resizeLast=1;html=1;labelBackgroundColor=none;fillColor=#21C0A5;strokeColor=#006658;fontColor=#5C5C5C;rounded=1;arcSize=29;" vertex="1" parent="1">
          <mxGeometry x="80" y="610" width="180" height="150" as="geometry" />
        </mxCell>
        <mxCell id="dDkFH5Ff9M02Oupnt17l-33" value="" style="shape=tableRow;horizontal=0;startSize=0;swimlaneHead=0;swimlaneBody=0;fillColor=none;collapsible=0;dropTarget=0;points=[[0,0.5],[1,0.5]];portConstraint=eastwest;top=0;left=0;right=0;bottom=1;labelBackgroundColor=none;strokeColor=#006658;fontColor=#5C5C5C;" vertex="1" parent="dDkFH5Ff9M02Oupnt17l-32">
          <mxGeometry y="30" width="180" height="30" as="geometry" />
        </mxCell>
        <mxCell id="dDkFH5Ff9M02Oupnt17l-34" value="PK" style="shape=partialRectangle;connectable=0;fillColor=none;top=0;left=0;bottom=0;right=0;fontStyle=1;overflow=hidden;whiteSpace=wrap;html=1;labelBackgroundColor=none;strokeColor=#006658;fontColor=#5C5C5C;" vertex="1" parent="dDkFH5Ff9M02Oupnt17l-33">
          <mxGeometry width="30" height="30" as="geometry">
            <mxRectangle width="30" height="30" as="alternateBounds" />
          </mxGeometry>
        </mxCell>
        <mxCell id="dDkFH5Ff9M02Oupnt17l-35" value="Id" style="shape=partialRectangle;connectable=0;fillColor=none;top=0;left=0;bottom=0;right=0;align=left;spacingLeft=6;fontStyle=5;overflow=hidden;whiteSpace=wrap;html=1;labelBackgroundColor=none;strokeColor=#006658;fontColor=#5C5C5C;" vertex="1" parent="dDkFH5Ff9M02Oupnt17l-33">
          <mxGeometry x="30" width="150" height="30" as="geometry">
            <mxRectangle width="150" height="30" as="alternateBounds" />
          </mxGeometry>
        </mxCell>
        <mxCell id="dDkFH5Ff9M02Oupnt17l-36" value="" style="shape=tableRow;horizontal=0;startSize=0;swimlaneHead=0;swimlaneBody=0;fillColor=none;collapsible=0;dropTarget=0;points=[[0,0.5],[1,0.5]];portConstraint=eastwest;top=0;left=0;right=0;bottom=0;labelBackgroundColor=none;strokeColor=#006658;fontColor=#5C5C5C;" vertex="1" parent="dDkFH5Ff9M02Oupnt17l-32">
          <mxGeometry y="60" width="180" height="30" as="geometry" />
        </mxCell>
        <mxCell id="dDkFH5Ff9M02Oupnt17l-37" value="" style="shape=partialRectangle;connectable=0;fillColor=none;top=0;left=0;bottom=0;right=0;editable=1;overflow=hidden;whiteSpace=wrap;html=1;labelBackgroundColor=none;strokeColor=#006658;fontColor=#5C5C5C;" vertex="1" parent="dDkFH5Ff9M02Oupnt17l-36">
          <mxGeometry width="30" height="30" as="geometry">
            <mxRectangle width="30" height="30" as="alternateBounds" />
          </mxGeometry>
        </mxCell>
        <mxCell id="dDkFH5Ff9M02Oupnt17l-38" value="BrandModel" style="shape=partialRectangle;connectable=0;fillColor=none;top=0;left=0;bottom=0;right=0;align=left;spacingLeft=6;overflow=hidden;whiteSpace=wrap;html=1;labelBackgroundColor=none;strokeColor=#006658;fontColor=#5C5C5C;" vertex="1" parent="dDkFH5Ff9M02Oupnt17l-36">
          <mxGeometry x="30" width="150" height="30" as="geometry">
            <mxRectangle width="150" height="30" as="alternateBounds" />
          </mxGeometry>
        </mxCell>
        <mxCell id="dDkFH5Ff9M02Oupnt17l-39" value="" style="shape=tableRow;horizontal=0;startSize=0;swimlaneHead=0;swimlaneBody=0;fillColor=none;collapsible=0;dropTarget=0;points=[[0,0.5],[1,0.5]];portConstraint=eastwest;top=0;left=0;right=0;bottom=0;labelBackgroundColor=none;strokeColor=#006658;fontColor=#5C5C5C;" vertex="1" parent="dDkFH5Ff9M02Oupnt17l-32">
          <mxGeometry y="90" width="180" height="30" as="geometry" />
        </mxCell>
        <mxCell id="dDkFH5Ff9M02Oupnt17l-40" value="" style="shape=partialRectangle;connectable=0;fillColor=none;top=0;left=0;bottom=0;right=0;editable=1;overflow=hidden;whiteSpace=wrap;html=1;labelBackgroundColor=none;strokeColor=#006658;fontColor=#5C5C5C;" vertex="1" parent="dDkFH5Ff9M02Oupnt17l-39">
          <mxGeometry width="30" height="30" as="geometry">
            <mxRectangle width="30" height="30" as="alternateBounds" />
          </mxGeometry>
        </mxCell>
        <mxCell id="dDkFH5Ff9M02Oupnt17l-41" value="KmPhats" style="shape=partialRectangle;connectable=0;fillColor=none;top=0;left=0;bottom=0;right=0;align=left;spacingLeft=6;overflow=hidden;whiteSpace=wrap;html=1;labelBackgroundColor=none;strokeColor=#006658;fontColor=#5C5C5C;" vertex="1" parent="dDkFH5Ff9M02Oupnt17l-39">
          <mxGeometry x="30" width="150" height="30" as="geometry">
            <mxRectangle width="150" height="30" as="alternateBounds" />
          </mxGeometry>
        </mxCell>
        <mxCell id="dDkFH5Ff9M02Oupnt17l-42" value="" style="shape=tableRow;horizontal=0;startSize=0;swimlaneHead=0;swimlaneBody=0;fillColor=none;collapsible=0;dropTarget=0;points=[[0,0.5],[1,0.5]];portConstraint=eastwest;top=0;left=0;right=0;bottom=0;labelBackgroundColor=none;strokeColor=#006658;fontColor=#5C5C5C;" vertex="1" parent="dDkFH5Ff9M02Oupnt17l-32">
          <mxGeometry y="120" width="180" height="30" as="geometry" />
        </mxCell>
        <mxCell id="dDkFH5Ff9M02Oupnt17l-43" value="" style="shape=partialRectangle;connectable=0;fillColor=none;top=0;left=0;bottom=0;right=0;editable=1;overflow=hidden;whiteSpace=wrap;html=1;labelBackgroundColor=none;strokeColor=#006658;fontColor=#5C5C5C;" vertex="1" parent="dDkFH5Ff9M02Oupnt17l-42">
          <mxGeometry width="30" height="30" as="geometry">
            <mxRectangle width="30" height="30" as="alternateBounds" />
          </mxGeometry>
        </mxCell>
        <mxCell id="dDkFH5Ff9M02Oupnt17l-44" value="RegistrationYear" style="shape=partialRectangle;connectable=0;fillColor=none;top=0;left=0;bottom=0;right=0;align=left;spacingLeft=6;overflow=hidden;whiteSpace=wrap;html=1;labelBackgroundColor=none;strokeColor=#006658;fontColor=#5C5C5C;" vertex="1" parent="dDkFH5Ff9M02Oupnt17l-42">
          <mxGeometry x="30" width="150" height="30" as="geometry">
            <mxRectangle width="150" height="30" as="alternateBounds" />
          </mxGeometry>
        </mxCell>
        <mxCell id="dDkFH5Ff9M02Oupnt17l-46" value="" style="edgeStyle=entityRelationEdgeStyle;fontSize=12;html=1;endArrow=ERmandOne;startArrow=ERmandOne;rounded=0;entryX=1;entryY=0.5;entryDx=0;entryDy=0;labelBackgroundColor=none;strokeColor=#006658;fontColor=default;" edge="1" parent="1" source="dDkFH5Ff9M02Oupnt17l-33" target="dDkFH5Ff9M02Oupnt17l-22">
          <mxGeometry width="100" height="100" relative="1" as="geometry">
            <mxPoint x="10" y="665" as="sourcePoint" />
            <mxPoint x="10" y="435" as="targetPoint" />
            <Array as="points">
              <mxPoint x="-100" y="525" />
              <mxPoint x="-90" y="545" />
              <mxPoint x="-60" y="515" />
            </Array>
          </mxGeometry>
        </mxCell>
        <mxCell id="dDkFH5Ff9M02Oupnt17l-48" value="User" style="shape=table;startSize=30;container=1;collapsible=1;childLayout=tableLayout;fixedRows=1;rowLines=0;fontStyle=1;align=center;resizeLast=1;html=1;miterlimit=4;swimlaneLine=1;strokeColor=#006658;rounded=1;labelBackgroundColor=none;fillColor=#21C0A5;fontColor=#5C5C5C;" vertex="1" parent="1">
          <mxGeometry x="90" y="-570" width="180" height="240" as="geometry" />
        </mxCell>
        <mxCell id="dDkFH5Ff9M02Oupnt17l-49" value="" style="shape=tableRow;horizontal=0;startSize=0;swimlaneHead=0;swimlaneBody=0;fillColor=none;collapsible=0;dropTarget=0;points=[[0,0.5],[1,0.5]];portConstraint=eastwest;top=0;left=0;right=0;bottom=1;labelBackgroundColor=none;strokeColor=#006658;fontColor=#5C5C5C;" vertex="1" parent="dDkFH5Ff9M02Oupnt17l-48">
          <mxGeometry y="30" width="180" height="30" as="geometry" />
        </mxCell>
        <mxCell id="dDkFH5Ff9M02Oupnt17l-50" value="PK" style="shape=partialRectangle;connectable=0;fillColor=none;top=0;left=0;bottom=0;right=0;fontStyle=1;overflow=hidden;whiteSpace=wrap;html=1;labelBackgroundColor=none;strokeColor=#006658;fontColor=#5C5C5C;" vertex="1" parent="dDkFH5Ff9M02Oupnt17l-49">
          <mxGeometry width="30" height="30" as="geometry">
            <mxRectangle width="30" height="30" as="alternateBounds" />
          </mxGeometry>
        </mxCell>
        <mxCell id="dDkFH5Ff9M02Oupnt17l-51" value="Id" style="shape=partialRectangle;connectable=0;fillColor=none;top=0;left=0;bottom=0;right=0;align=left;spacingLeft=6;fontStyle=5;overflow=hidden;whiteSpace=wrap;html=1;labelBackgroundColor=none;strokeColor=#006658;fontColor=#5C5C5C;" vertex="1" parent="dDkFH5Ff9M02Oupnt17l-49">
          <mxGeometry x="30" width="150" height="30" as="geometry">
            <mxRectangle width="150" height="30" as="alternateBounds" />
          </mxGeometry>
        </mxCell>
        <mxCell id="dDkFH5Ff9M02Oupnt17l-52" value="" style="shape=tableRow;horizontal=0;startSize=0;swimlaneHead=0;swimlaneBody=0;fillColor=none;collapsible=0;dropTarget=0;points=[[0,0.5],[1,0.5]];portConstraint=eastwest;top=0;left=0;right=0;bottom=0;swimlaneLine=0;labelBackgroundColor=none;strokeColor=#006658;fontColor=#5C5C5C;" vertex="1" parent="dDkFH5Ff9M02Oupnt17l-48">
          <mxGeometry y="60" width="180" height="30" as="geometry" />
        </mxCell>
        <mxCell id="dDkFH5Ff9M02Oupnt17l-53" value="FK" style="shape=partialRectangle;connectable=0;fillColor=none;top=0;left=0;bottom=0;right=0;editable=1;overflow=hidden;whiteSpace=wrap;html=1;labelBackgroundColor=none;strokeColor=#006658;fontColor=#5C5C5C;" vertex="1" parent="dDkFH5Ff9M02Oupnt17l-52">
          <mxGeometry width="30" height="30" as="geometry">
            <mxRectangle width="30" height="30" as="alternateBounds" />
          </mxGeometry>
        </mxCell>
        <mxCell id="dDkFH5Ff9M02Oupnt17l-54" value="Anag_Id" style="shape=partialRectangle;connectable=0;fillColor=none;top=0;left=0;bottom=0;right=0;align=left;spacingLeft=6;overflow=hidden;whiteSpace=wrap;html=1;labelBackgroundColor=none;strokeColor=#006658;fontColor=#5C5C5C;" vertex="1" parent="dDkFH5Ff9M02Oupnt17l-52">
          <mxGeometry x="30" width="150" height="30" as="geometry">
            <mxRectangle width="150" height="30" as="alternateBounds" />
          </mxGeometry>
        </mxCell>
        <mxCell id="dDkFH5Ff9M02Oupnt17l-55" value="" style="shape=tableRow;horizontal=0;startSize=0;swimlaneHead=0;swimlaneBody=0;fillColor=none;collapsible=0;dropTarget=0;points=[[0,0.5],[1,0.5]];portConstraint=eastwest;top=0;left=0;right=0;bottom=0;swimlaneLine=0;labelBackgroundColor=none;strokeColor=#006658;fontColor=#5C5C5C;" vertex="1" parent="dDkFH5Ff9M02Oupnt17l-48">
          <mxGeometry y="90" width="180" height="30" as="geometry" />
        </mxCell>
        <mxCell id="dDkFH5Ff9M02Oupnt17l-56" value="" style="shape=partialRectangle;connectable=0;fillColor=none;top=0;left=0;bottom=0;right=0;editable=1;overflow=hidden;whiteSpace=wrap;html=1;labelBackgroundColor=none;strokeColor=#006658;fontColor=#5C5C5C;" vertex="1" parent="dDkFH5Ff9M02Oupnt17l-55">
          <mxGeometry width="30" height="30" as="geometry">
            <mxRectangle width="30" height="30" as="alternateBounds" />
          </mxGeometry>
        </mxCell>
        <mxCell id="dDkFH5Ff9M02Oupnt17l-57" value="Role" style="shape=partialRectangle;connectable=0;fillColor=none;top=0;left=0;bottom=0;right=0;align=left;spacingLeft=6;overflow=hidden;whiteSpace=wrap;html=1;labelBackgroundColor=none;strokeColor=#006658;fontColor=#5C5C5C;" vertex="1" parent="dDkFH5Ff9M02Oupnt17l-55">
          <mxGeometry x="30" width="150" height="30" as="geometry">
            <mxRectangle width="150" height="30" as="alternateBounds" />
          </mxGeometry>
        </mxCell>
        <mxCell id="dDkFH5Ff9M02Oupnt17l-58" value="" style="shape=tableRow;horizontal=0;startSize=0;swimlaneHead=0;swimlaneBody=0;fillColor=none;collapsible=0;dropTarget=0;points=[[0,0.5],[1,0.5]];portConstraint=eastwest;top=0;left=0;right=0;bottom=0;labelBackgroundColor=none;strokeColor=#006658;fontColor=#5C5C5C;" vertex="1" parent="dDkFH5Ff9M02Oupnt17l-48">
          <mxGeometry y="120" width="180" height="30" as="geometry" />
        </mxCell>
        <mxCell id="dDkFH5Ff9M02Oupnt17l-59" value="FK" style="shape=partialRectangle;connectable=0;fillColor=none;top=0;left=0;bottom=0;right=0;editable=1;overflow=hidden;whiteSpace=wrap;html=1;labelBackgroundColor=none;strokeColor=#006658;fontColor=#5C5C5C;" vertex="1" parent="dDkFH5Ff9M02Oupnt17l-58">
          <mxGeometry width="30" height="30" as="geometry">
            <mxRectangle width="30" height="30" as="alternateBounds" />
          </mxGeometry>
        </mxCell>
        <mxCell id="dDkFH5Ff9M02Oupnt17l-60" value="Employee" style="shape=partialRectangle;connectable=0;fillColor=none;top=0;left=0;bottom=0;right=0;align=left;spacingLeft=6;overflow=hidden;whiteSpace=wrap;html=1;allowArrows=1;recursiveResize=1;labelBackgroundColor=none;strokeColor=#006658;fontColor=#5C5C5C;" vertex="1" parent="dDkFH5Ff9M02Oupnt17l-58">
          <mxGeometry x="30" width="150" height="30" as="geometry">
            <mxRectangle width="150" height="30" as="alternateBounds" />
          </mxGeometry>
        </mxCell>
        <mxCell id="dDkFH5Ff9M02Oupnt17l-334" style="shape=tableRow;horizontal=0;startSize=0;swimlaneHead=0;swimlaneBody=0;fillColor=none;collapsible=0;dropTarget=0;points=[[0,0.5],[1,0.5]];portConstraint=eastwest;top=0;left=0;right=0;bottom=0;labelBackgroundColor=none;strokeColor=#006658;fontColor=#5C5C5C;" vertex="1" parent="dDkFH5Ff9M02Oupnt17l-48">
          <mxGeometry y="150" width="180" height="30" as="geometry" />
        </mxCell>
        <mxCell id="dDkFH5Ff9M02Oupnt17l-335" value="&#xa;&lt;span style=&quot;color: rgb(92, 92, 92); font-family: Helvetica; font-size: 12px; font-style: normal; font-variant-ligatures: normal; font-variant-caps: normal; font-weight: 400; letter-spacing: normal; orphans: 2; text-align: center; text-indent: 0px; text-transform: none; widows: 2; word-spacing: 0px; -webkit-text-stroke-width: 0px; white-space: normal; background-color: rgb(236, 236, 236); text-decoration-thickness: initial; text-decoration-style: initial; text-decoration-color: initial; display: inline !important; float: none;&quot;&gt;FK&lt;/span&gt;&#xa;&#xa;" style="shape=partialRectangle;connectable=0;fillColor=none;top=0;left=0;bottom=0;right=0;editable=1;overflow=hidden;whiteSpace=wrap;html=1;labelBackgroundColor=none;strokeColor=#006658;fontColor=#5C5C5C;" vertex="1" parent="dDkFH5Ff9M02Oupnt17l-334">
          <mxGeometry width="30" height="30" as="geometry">
            <mxRectangle width="30" height="30" as="alternateBounds" />
          </mxGeometry>
        </mxCell>
        <mxCell id="dDkFH5Ff9M02Oupnt17l-336" value="ExpertP" style="shape=partialRectangle;connectable=0;fillColor=none;top=0;left=0;bottom=0;right=0;align=left;spacingLeft=6;overflow=hidden;whiteSpace=wrap;html=1;allowArrows=1;recursiveResize=1;labelBackgroundColor=none;strokeColor=#006658;fontColor=#5C5C5C;" vertex="1" parent="dDkFH5Ff9M02Oupnt17l-334">
          <mxGeometry x="30" width="150" height="30" as="geometry">
            <mxRectangle width="150" height="30" as="alternateBounds" />
          </mxGeometry>
        </mxCell>
        <mxCell id="dDkFH5Ff9M02Oupnt17l-337" style="shape=tableRow;horizontal=0;startSize=0;swimlaneHead=0;swimlaneBody=0;fillColor=none;collapsible=0;dropTarget=0;points=[[0,0.5],[1,0.5]];portConstraint=eastwest;top=0;left=0;right=0;bottom=0;labelBackgroundColor=none;strokeColor=#006658;fontColor=#5C5C5C;" vertex="1" parent="dDkFH5Ff9M02Oupnt17l-48">
          <mxGeometry y="180" width="180" height="30" as="geometry" />
        </mxCell>
        <mxCell id="dDkFH5Ff9M02Oupnt17l-338" value="&#xa;&lt;span style=&quot;color: rgb(92, 92, 92); font-family: Helvetica; font-size: 12px; font-style: normal; font-variant-ligatures: normal; font-variant-caps: normal; font-weight: 400; letter-spacing: normal; orphans: 2; text-align: center; text-indent: 0px; text-transform: none; widows: 2; word-spacing: 0px; -webkit-text-stroke-width: 0px; white-space: normal; background-color: rgb(236, 236, 236); text-decoration-thickness: initial; text-decoration-style: initial; text-decoration-color: initial; display: inline !important; float: none;&quot;&gt;FK&lt;/span&gt;&#xa;&#xa;" style="shape=partialRectangle;connectable=0;fillColor=none;top=0;left=0;bottom=0;right=0;editable=1;overflow=hidden;whiteSpace=wrap;html=1;labelBackgroundColor=none;strokeColor=#006658;fontColor=#5C5C5C;" vertex="1" parent="dDkFH5Ff9M02Oupnt17l-337">
          <mxGeometry width="30" height="30" as="geometry">
            <mxRectangle width="30" height="30" as="alternateBounds" />
          </mxGeometry>
        </mxCell>
        <mxCell id="dDkFH5Ff9M02Oupnt17l-339" value="Accountant" style="shape=partialRectangle;connectable=0;fillColor=none;top=0;left=0;bottom=0;right=0;align=left;spacingLeft=6;overflow=hidden;whiteSpace=wrap;html=1;allowArrows=1;recursiveResize=1;labelBackgroundColor=none;strokeColor=#006658;fontColor=#5C5C5C;" vertex="1" parent="dDkFH5Ff9M02Oupnt17l-337">
          <mxGeometry x="30" width="150" height="30" as="geometry">
            <mxRectangle width="150" height="30" as="alternateBounds" />
          </mxGeometry>
        </mxCell>
        <mxCell id="dDkFH5Ff9M02Oupnt17l-382" style="shape=tableRow;horizontal=0;startSize=0;swimlaneHead=0;swimlaneBody=0;fillColor=none;collapsible=0;dropTarget=0;points=[[0,0.5],[1,0.5]];portConstraint=eastwest;top=0;left=0;right=0;bottom=0;labelBackgroundColor=none;strokeColor=#006658;fontColor=#5C5C5C;" vertex="1" parent="dDkFH5Ff9M02Oupnt17l-48">
          <mxGeometry y="210" width="180" height="30" as="geometry" />
        </mxCell>
        <mxCell id="dDkFH5Ff9M02Oupnt17l-383" value="FK" style="shape=partialRectangle;connectable=0;fillColor=none;top=0;left=0;bottom=0;right=0;editable=1;overflow=hidden;whiteSpace=wrap;html=1;labelBackgroundColor=none;strokeColor=#006658;fontColor=#5C5C5C;" vertex="1" parent="dDkFH5Ff9M02Oupnt17l-382">
          <mxGeometry width="30" height="30" as="geometry">
            <mxRectangle width="30" height="30" as="alternateBounds" />
          </mxGeometry>
        </mxCell>
        <mxCell id="dDkFH5Ff9M02Oupnt17l-384" value="InsAgency" style="shape=partialRectangle;connectable=0;fillColor=none;top=0;left=0;bottom=0;right=0;align=left;spacingLeft=6;overflow=hidden;whiteSpace=wrap;html=1;allowArrows=1;recursiveResize=1;labelBackgroundColor=none;strokeColor=#006658;fontColor=#5C5C5C;" vertex="1" parent="dDkFH5Ff9M02Oupnt17l-382">
          <mxGeometry x="30" width="150" height="30" as="geometry">
            <mxRectangle width="150" height="30" as="alternateBounds" />
          </mxGeometry>
        </mxCell>
        <mxCell id="dDkFH5Ff9M02Oupnt17l-91" value="Anag" style="shape=table;startSize=30;container=1;collapsible=1;childLayout=tableLayout;fixedRows=1;rowLines=0;fontStyle=1;align=center;resizeLast=1;html=1;miterlimit=4;swimlaneLine=1;strokeColor=#006658;rounded=1;labelBackgroundColor=none;fillColor=#21C0A5;fontColor=#5C5C5C;" vertex="1" parent="1">
          <mxGeometry x="-160" y="-70" width="180" height="150" as="geometry" />
        </mxCell>
        <mxCell id="dDkFH5Ff9M02Oupnt17l-92" value="" style="shape=tableRow;horizontal=0;startSize=0;swimlaneHead=0;swimlaneBody=0;fillColor=none;collapsible=0;dropTarget=0;points=[[0,0.5],[1,0.5]];portConstraint=eastwest;top=0;left=0;right=0;bottom=1;labelBackgroundColor=none;strokeColor=#006658;fontColor=#5C5C5C;" vertex="1" parent="dDkFH5Ff9M02Oupnt17l-91">
          <mxGeometry y="30" width="180" height="30" as="geometry" />
        </mxCell>
        <mxCell id="dDkFH5Ff9M02Oupnt17l-93" value="PK" style="shape=partialRectangle;connectable=0;fillColor=none;top=0;left=0;bottom=0;right=0;fontStyle=1;overflow=hidden;whiteSpace=wrap;html=1;labelBackgroundColor=none;strokeColor=#006658;fontColor=#5C5C5C;" vertex="1" parent="dDkFH5Ff9M02Oupnt17l-92">
          <mxGeometry width="30" height="30" as="geometry">
            <mxRectangle width="30" height="30" as="alternateBounds" />
          </mxGeometry>
        </mxCell>
        <mxCell id="dDkFH5Ff9M02Oupnt17l-94" value="Id" style="shape=partialRectangle;connectable=0;fillColor=none;top=0;left=0;bottom=0;right=0;align=left;spacingLeft=6;fontStyle=5;overflow=hidden;whiteSpace=wrap;html=1;labelBackgroundColor=none;strokeColor=#006658;fontColor=#5C5C5C;" vertex="1" parent="dDkFH5Ff9M02Oupnt17l-92">
          <mxGeometry x="30" width="150" height="30" as="geometry">
            <mxRectangle width="150" height="30" as="alternateBounds" />
          </mxGeometry>
        </mxCell>
        <mxCell id="dDkFH5Ff9M02Oupnt17l-95" value="" style="shape=tableRow;horizontal=0;startSize=0;swimlaneHead=0;swimlaneBody=0;fillColor=none;collapsible=0;dropTarget=0;points=[[0,0.5],[1,0.5]];portConstraint=eastwest;top=0;left=0;right=0;bottom=0;swimlaneLine=0;labelBackgroundColor=none;strokeColor=#006658;fontColor=#5C5C5C;" vertex="1" parent="dDkFH5Ff9M02Oupnt17l-91">
          <mxGeometry y="60" width="180" height="30" as="geometry" />
        </mxCell>
        <mxCell id="dDkFH5Ff9M02Oupnt17l-96" value="" style="shape=partialRectangle;connectable=0;fillColor=none;top=0;left=0;bottom=0;right=0;editable=1;overflow=hidden;whiteSpace=wrap;html=1;labelBackgroundColor=none;strokeColor=#006658;fontColor=#5C5C5C;" vertex="1" parent="dDkFH5Ff9M02Oupnt17l-95">
          <mxGeometry width="30" height="30" as="geometry">
            <mxRectangle width="30" height="30" as="alternateBounds" />
          </mxGeometry>
        </mxCell>
        <mxCell id="dDkFH5Ff9M02Oupnt17l-97" value="Name&lt;span style=&quot;white-space: pre;&quot;&gt;&#x9;&lt;/span&gt;" style="shape=partialRectangle;connectable=0;fillColor=none;top=0;left=0;bottom=0;right=0;align=left;spacingLeft=6;overflow=hidden;whiteSpace=wrap;html=1;labelBackgroundColor=none;strokeColor=#006658;fontColor=#5C5C5C;" vertex="1" parent="dDkFH5Ff9M02Oupnt17l-95">
          <mxGeometry x="30" width="150" height="30" as="geometry">
            <mxRectangle width="150" height="30" as="alternateBounds" />
          </mxGeometry>
        </mxCell>
        <mxCell id="dDkFH5Ff9M02Oupnt17l-98" value="" style="shape=tableRow;horizontal=0;startSize=0;swimlaneHead=0;swimlaneBody=0;fillColor=none;collapsible=0;dropTarget=0;points=[[0,0.5],[1,0.5]];portConstraint=eastwest;top=0;left=0;right=0;bottom=0;swimlaneLine=0;labelBackgroundColor=none;strokeColor=#006658;fontColor=#5C5C5C;" vertex="1" parent="dDkFH5Ff9M02Oupnt17l-91">
          <mxGeometry y="90" width="180" height="30" as="geometry" />
        </mxCell>
        <mxCell id="dDkFH5Ff9M02Oupnt17l-99" value="" style="shape=partialRectangle;connectable=0;fillColor=none;top=0;left=0;bottom=0;right=0;editable=1;overflow=hidden;whiteSpace=wrap;html=1;labelBackgroundColor=none;strokeColor=#006658;fontColor=#5C5C5C;" vertex="1" parent="dDkFH5Ff9M02Oupnt17l-98">
          <mxGeometry width="30" height="30" as="geometry">
            <mxRectangle width="30" height="30" as="alternateBounds" />
          </mxGeometry>
        </mxCell>
        <mxCell id="dDkFH5Ff9M02Oupnt17l-100" value="Surname" style="shape=partialRectangle;connectable=0;fillColor=none;top=0;left=0;bottom=0;right=0;align=left;spacingLeft=6;overflow=hidden;whiteSpace=wrap;html=1;labelBackgroundColor=none;strokeColor=#006658;fontColor=#5C5C5C;" vertex="1" parent="dDkFH5Ff9M02Oupnt17l-98">
          <mxGeometry x="30" width="150" height="30" as="geometry">
            <mxRectangle width="150" height="30" as="alternateBounds" />
          </mxGeometry>
        </mxCell>
        <mxCell id="dDkFH5Ff9M02Oupnt17l-101" value="" style="shape=tableRow;horizontal=0;startSize=0;swimlaneHead=0;swimlaneBody=0;fillColor=none;collapsible=0;dropTarget=0;points=[[0,0.5],[1,0.5]];portConstraint=eastwest;top=0;left=0;right=0;bottom=0;labelBackgroundColor=none;strokeColor=#006658;fontColor=#5C5C5C;" vertex="1" parent="dDkFH5Ff9M02Oupnt17l-91">
          <mxGeometry y="120" width="180" height="30" as="geometry" />
        </mxCell>
        <mxCell id="dDkFH5Ff9M02Oupnt17l-102" value="" style="shape=partialRectangle;connectable=0;fillColor=none;top=0;left=0;bottom=0;right=0;editable=1;overflow=hidden;whiteSpace=wrap;html=1;labelBackgroundColor=none;strokeColor=#006658;fontColor=#5C5C5C;" vertex="1" parent="dDkFH5Ff9M02Oupnt17l-101">
          <mxGeometry width="30" height="30" as="geometry">
            <mxRectangle width="30" height="30" as="alternateBounds" />
          </mxGeometry>
        </mxCell>
        <mxCell id="dDkFH5Ff9M02Oupnt17l-103" value="BDay" style="shape=partialRectangle;connectable=0;fillColor=none;top=0;left=0;bottom=0;right=0;align=left;spacingLeft=6;overflow=hidden;whiteSpace=wrap;html=1;allowArrows=1;recursiveResize=1;labelBackgroundColor=none;strokeColor=#006658;fontColor=#5C5C5C;" vertex="1" parent="dDkFH5Ff9M02Oupnt17l-101">
          <mxGeometry x="30" width="150" height="30" as="geometry">
            <mxRectangle width="150" height="30" as="alternateBounds" />
          </mxGeometry>
        </mxCell>
        <mxCell id="dDkFH5Ff9M02Oupnt17l-104" value="" style="edgeStyle=entityRelationEdgeStyle;fontSize=12;html=1;endArrow=ERmandOne;startArrow=ERmandOne;rounded=0;strokeColor=#006658;fontColor=#5C5C5C;fillColor=#21C0A5;exitX=1;exitY=0.5;exitDx=0;exitDy=0;" edge="1" parent="1" source="dDkFH5Ff9M02Oupnt17l-92" target="dDkFH5Ff9M02Oupnt17l-52">
          <mxGeometry width="100" height="100" relative="1" as="geometry">
            <mxPoint x="-90" y="110" as="sourcePoint" />
            <mxPoint x="10" y="10" as="targetPoint" />
          </mxGeometry>
        </mxCell>
        <mxCell id="dDkFH5Ff9M02Oupnt17l-105" value="" style="edgeStyle=entityRelationEdgeStyle;fontSize=12;html=1;endArrow=ERmandOne;startArrow=ERmandOne;rounded=0;strokeColor=#006658;fontColor=#5C5C5C;fillColor=#21C0A5;entryX=0;entryY=0.5;entryDx=0;entryDy=0;exitX=1;exitY=0.5;exitDx=0;exitDy=0;" edge="1" parent="1" source="dDkFH5Ff9M02Oupnt17l-92" target="dDkFH5Ff9M02Oupnt17l-9">
          <mxGeometry width="100" height="100" relative="1" as="geometry">
            <mxPoint x="-90" y="210" as="sourcePoint" />
            <mxPoint x="10" y="110" as="targetPoint" />
          </mxGeometry>
        </mxCell>
        <mxCell id="dDkFH5Ff9M02Oupnt17l-120" value="ExpertP" style="shape=table;startSize=30;container=1;collapsible=1;childLayout=tableLayout;fixedRows=1;rowLines=0;fontStyle=1;align=center;resizeLast=1;html=1;miterlimit=4;swimlaneLine=1;strokeColor=#006658;rounded=1;labelBackgroundColor=none;fillColor=#21C0A5;fontColor=#5C5C5C;" vertex="1" parent="1">
          <mxGeometry x="710" y="-270" width="180" height="180" as="geometry">
            <mxRectangle x="740" y="-80" width="80" height="30" as="alternateBounds" />
          </mxGeometry>
        </mxCell>
        <mxCell id="dDkFH5Ff9M02Oupnt17l-121" value="" style="shape=tableRow;horizontal=0;startSize=0;swimlaneHead=0;swimlaneBody=0;fillColor=none;collapsible=0;dropTarget=0;points=[[0,0.5],[1,0.5]];portConstraint=eastwest;top=0;left=0;right=0;bottom=1;labelBackgroundColor=none;strokeColor=#006658;fontColor=#5C5C5C;" vertex="1" parent="dDkFH5Ff9M02Oupnt17l-120">
          <mxGeometry y="30" width="180" height="30" as="geometry" />
        </mxCell>
        <mxCell id="dDkFH5Ff9M02Oupnt17l-122" value="PK" style="shape=partialRectangle;connectable=0;fillColor=none;top=0;left=0;bottom=0;right=0;fontStyle=1;overflow=hidden;whiteSpace=wrap;html=1;labelBackgroundColor=none;strokeColor=#006658;fontColor=#5C5C5C;" vertex="1" parent="dDkFH5Ff9M02Oupnt17l-121">
          <mxGeometry width="30" height="30" as="geometry">
            <mxRectangle width="30" height="30" as="alternateBounds" />
          </mxGeometry>
        </mxCell>
        <mxCell id="dDkFH5Ff9M02Oupnt17l-123" value="Id_User" style="shape=partialRectangle;connectable=0;fillColor=none;top=0;left=0;bottom=0;right=0;align=left;spacingLeft=6;fontStyle=5;overflow=hidden;whiteSpace=wrap;html=1;labelBackgroundColor=none;strokeColor=#006658;fontColor=#5C5C5C;" vertex="1" parent="dDkFH5Ff9M02Oupnt17l-121">
          <mxGeometry x="30" width="150" height="30" as="geometry">
            <mxRectangle width="150" height="30" as="alternateBounds" />
          </mxGeometry>
        </mxCell>
        <mxCell id="dDkFH5Ff9M02Oupnt17l-124" value="" style="shape=tableRow;horizontal=0;startSize=0;swimlaneHead=0;swimlaneBody=0;fillColor=none;collapsible=0;dropTarget=0;points=[[0,0.5],[1,0.5]];portConstraint=eastwest;top=0;left=0;right=0;bottom=0;swimlaneLine=0;labelBackgroundColor=none;strokeColor=#006658;fontColor=#5C5C5C;" vertex="1" parent="dDkFH5Ff9M02Oupnt17l-120">
          <mxGeometry y="60" width="180" height="30" as="geometry" />
        </mxCell>
        <mxCell id="dDkFH5Ff9M02Oupnt17l-125" value="FK" style="shape=partialRectangle;connectable=0;fillColor=none;top=0;left=0;bottom=0;right=0;editable=1;overflow=hidden;whiteSpace=wrap;html=1;labelBackgroundColor=none;strokeColor=#006658;fontColor=#5C5C5C;" vertex="1" parent="dDkFH5Ff9M02Oupnt17l-124">
          <mxGeometry width="30" height="30" as="geometry">
            <mxRectangle width="30" height="30" as="alternateBounds" />
          </mxGeometry>
        </mxCell>
        <mxCell id="dDkFH5Ff9M02Oupnt17l-126" value="Expertise" style="shape=partialRectangle;connectable=0;fillColor=none;top=0;left=0;bottom=0;right=0;align=left;spacingLeft=6;overflow=hidden;whiteSpace=wrap;html=1;labelBackgroundColor=none;strokeColor=#006658;fontColor=#5C5C5C;" vertex="1" parent="dDkFH5Ff9M02Oupnt17l-124">
          <mxGeometry x="30" width="150" height="30" as="geometry">
            <mxRectangle width="150" height="30" as="alternateBounds" />
          </mxGeometry>
        </mxCell>
        <mxCell id="dDkFH5Ff9M02Oupnt17l-127" value="" style="shape=tableRow;horizontal=0;startSize=0;swimlaneHead=0;swimlaneBody=0;fillColor=none;collapsible=0;dropTarget=0;points=[[0,0.5],[1,0.5]];portConstraint=eastwest;top=0;left=0;right=0;bottom=0;swimlaneLine=0;labelBackgroundColor=none;strokeColor=#006658;fontColor=#5C5C5C;" vertex="1" parent="dDkFH5Ff9M02Oupnt17l-120">
          <mxGeometry y="90" width="180" height="30" as="geometry" />
        </mxCell>
        <mxCell id="dDkFH5Ff9M02Oupnt17l-128" value="FK" style="shape=partialRectangle;connectable=0;fillColor=none;top=0;left=0;bottom=0;right=0;editable=1;overflow=hidden;whiteSpace=wrap;html=1;labelBackgroundColor=none;strokeColor=#006658;fontColor=#5C5C5C;" vertex="1" parent="dDkFH5Ff9M02Oupnt17l-127">
          <mxGeometry width="30" height="30" as="geometry">
            <mxRectangle width="30" height="30" as="alternateBounds" />
          </mxGeometry>
        </mxCell>
        <mxCell id="dDkFH5Ff9M02Oupnt17l-129" value="Anag" style="shape=partialRectangle;connectable=0;fillColor=none;top=0;left=0;bottom=0;right=0;align=left;spacingLeft=6;overflow=hidden;whiteSpace=wrap;html=1;labelBackgroundColor=none;strokeColor=#006658;fontColor=#5C5C5C;" vertex="1" parent="dDkFH5Ff9M02Oupnt17l-127">
          <mxGeometry x="30" width="150" height="30" as="geometry">
            <mxRectangle width="150" height="30" as="alternateBounds" />
          </mxGeometry>
        </mxCell>
        <mxCell id="dDkFH5Ff9M02Oupnt17l-378" style="shape=tableRow;horizontal=0;startSize=0;swimlaneHead=0;swimlaneBody=0;fillColor=none;collapsible=0;dropTarget=0;points=[[0,0.5],[1,0.5]];portConstraint=eastwest;top=0;left=0;right=0;bottom=0;swimlaneLine=0;labelBackgroundColor=none;strokeColor=#006658;fontColor=#5C5C5C;" vertex="1" parent="dDkFH5Ff9M02Oupnt17l-120">
          <mxGeometry y="120" width="180" height="30" as="geometry" />
        </mxCell>
        <mxCell id="dDkFH5Ff9M02Oupnt17l-379" value="FK" style="shape=partialRectangle;connectable=0;fillColor=none;top=0;left=0;bottom=0;right=0;editable=1;overflow=hidden;whiteSpace=wrap;html=1;labelBackgroundColor=none;strokeColor=#006658;fontColor=#5C5C5C;" vertex="1" parent="dDkFH5Ff9M02Oupnt17l-378">
          <mxGeometry width="30" height="30" as="geometry">
            <mxRectangle width="30" height="30" as="alternateBounds" />
          </mxGeometry>
        </mxCell>
        <mxCell id="dDkFH5Ff9M02Oupnt17l-380" value="Claim_ID" style="shape=partialRectangle;connectable=0;fillColor=none;top=0;left=0;bottom=0;right=0;align=left;spacingLeft=6;overflow=hidden;whiteSpace=wrap;html=1;labelBackgroundColor=none;strokeColor=#006658;fontColor=#5C5C5C;" vertex="1" parent="dDkFH5Ff9M02Oupnt17l-378">
          <mxGeometry x="30" width="150" height="30" as="geometry">
            <mxRectangle width="150" height="30" as="alternateBounds" />
          </mxGeometry>
        </mxCell>
        <mxCell id="dDkFH5Ff9M02Oupnt17l-130" value="" style="shape=tableRow;horizontal=0;startSize=0;swimlaneHead=0;swimlaneBody=0;fillColor=none;collapsible=0;dropTarget=0;points=[[0,0.5],[1,0.5]];portConstraint=eastwest;top=0;left=0;right=0;bottom=0;labelBackgroundColor=none;strokeColor=#006658;fontColor=#5C5C5C;" vertex="1" parent="dDkFH5Ff9M02Oupnt17l-120">
          <mxGeometry y="150" width="180" height="30" as="geometry" />
        </mxCell>
        <mxCell id="dDkFH5Ff9M02Oupnt17l-131" value="" style="shape=partialRectangle;connectable=0;fillColor=none;top=0;left=0;bottom=0;right=0;editable=1;overflow=hidden;whiteSpace=wrap;html=1;labelBackgroundColor=none;strokeColor=#006658;fontColor=#5C5C5C;" vertex="1" parent="dDkFH5Ff9M02Oupnt17l-130">
          <mxGeometry width="30" height="30" as="geometry">
            <mxRectangle width="30" height="30" as="alternateBounds" />
          </mxGeometry>
        </mxCell>
        <mxCell id="dDkFH5Ff9M02Oupnt17l-132" value="RefZone" style="shape=partialRectangle;connectable=0;fillColor=none;top=0;left=0;bottom=0;right=0;align=left;spacingLeft=6;overflow=hidden;whiteSpace=wrap;html=1;allowArrows=1;recursiveResize=1;labelBackgroundColor=none;strokeColor=#006658;fontColor=#5C5C5C;" vertex="1" parent="dDkFH5Ff9M02Oupnt17l-130">
          <mxGeometry x="30" width="150" height="30" as="geometry">
            <mxRectangle width="150" height="30" as="alternateBounds" />
          </mxGeometry>
        </mxCell>
        <mxCell id="dDkFH5Ff9M02Oupnt17l-133" value="Accountant" style="shape=table;startSize=30;container=1;collapsible=1;childLayout=tableLayout;fixedRows=1;rowLines=0;fontStyle=1;align=center;resizeLast=1;html=1;miterlimit=4;swimlaneLine=1;strokeColor=#006658;rounded=1;labelBackgroundColor=none;fillColor=#21C0A5;fontColor=#5C5C5C;" vertex="1" parent="1">
          <mxGeometry x="1080" y="-120" width="180" height="190" as="geometry" />
        </mxCell>
        <mxCell id="dDkFH5Ff9M02Oupnt17l-134" value="" style="shape=tableRow;horizontal=0;startSize=0;swimlaneHead=0;swimlaneBody=0;fillColor=none;collapsible=0;dropTarget=0;points=[[0,0.5],[1,0.5]];portConstraint=eastwest;top=0;left=0;right=0;bottom=1;labelBackgroundColor=none;strokeColor=#006658;fontColor=#5C5C5C;" vertex="1" parent="dDkFH5Ff9M02Oupnt17l-133">
          <mxGeometry y="30" width="180" height="30" as="geometry" />
        </mxCell>
        <mxCell id="dDkFH5Ff9M02Oupnt17l-135" value="PK" style="shape=partialRectangle;connectable=0;fillColor=none;top=0;left=0;bottom=0;right=0;fontStyle=1;overflow=hidden;whiteSpace=wrap;html=1;labelBackgroundColor=none;strokeColor=#006658;fontColor=#5C5C5C;" vertex="1" parent="dDkFH5Ff9M02Oupnt17l-134">
          <mxGeometry width="30" height="30" as="geometry">
            <mxRectangle width="30" height="30" as="alternateBounds" />
          </mxGeometry>
        </mxCell>
        <mxCell id="dDkFH5Ff9M02Oupnt17l-136" value="Id_User" style="shape=partialRectangle;connectable=0;fillColor=none;top=0;left=0;bottom=0;right=0;align=left;spacingLeft=6;fontStyle=5;overflow=hidden;whiteSpace=wrap;html=1;labelBackgroundColor=none;strokeColor=#006658;fontColor=#5C5C5C;" vertex="1" parent="dDkFH5Ff9M02Oupnt17l-134">
          <mxGeometry x="30" width="150" height="30" as="geometry">
            <mxRectangle width="150" height="30" as="alternateBounds" />
          </mxGeometry>
        </mxCell>
        <mxCell id="dDkFH5Ff9M02Oupnt17l-137" value="" style="shape=tableRow;horizontal=0;startSize=0;swimlaneHead=0;swimlaneBody=0;fillColor=none;collapsible=0;dropTarget=0;points=[[0,0.5],[1,0.5]];portConstraint=eastwest;top=0;left=0;right=0;bottom=0;swimlaneLine=0;labelBackgroundColor=none;strokeColor=#006658;fontColor=#5C5C5C;" vertex="1" parent="dDkFH5Ff9M02Oupnt17l-133">
          <mxGeometry y="60" width="180" height="30" as="geometry" />
        </mxCell>
        <mxCell id="dDkFH5Ff9M02Oupnt17l-138" value="FK" style="shape=partialRectangle;connectable=0;fillColor=none;top=0;left=0;bottom=0;right=0;editable=1;overflow=hidden;whiteSpace=wrap;html=1;labelBackgroundColor=none;strokeColor=#006658;fontColor=#5C5C5C;" vertex="1" parent="dDkFH5Ff9M02Oupnt17l-137">
          <mxGeometry width="30" height="30" as="geometry">
            <mxRectangle width="30" height="30" as="alternateBounds" />
          </mxGeometry>
        </mxCell>
        <mxCell id="dDkFH5Ff9M02Oupnt17l-139" value="Anag" style="shape=partialRectangle;connectable=0;fillColor=none;top=0;left=0;bottom=0;right=0;align=left;spacingLeft=6;overflow=hidden;whiteSpace=wrap;html=1;labelBackgroundColor=none;strokeColor=#006658;fontColor=#5C5C5C;" vertex="1" parent="dDkFH5Ff9M02Oupnt17l-137">
          <mxGeometry x="30" width="150" height="30" as="geometry">
            <mxRectangle width="150" height="30" as="alternateBounds" />
          </mxGeometry>
        </mxCell>
        <mxCell id="dDkFH5Ff9M02Oupnt17l-140" value="" style="shape=tableRow;horizontal=0;startSize=0;swimlaneHead=0;swimlaneBody=0;fillColor=none;collapsible=0;dropTarget=0;points=[[0,0.5],[1,0.5]];portConstraint=eastwest;top=0;left=0;right=0;bottom=0;swimlaneLine=0;labelBackgroundColor=none;strokeColor=#006658;fontColor=#5C5C5C;" vertex="1" parent="dDkFH5Ff9M02Oupnt17l-133">
          <mxGeometry y="90" width="180" height="30" as="geometry" />
        </mxCell>
        <mxCell id="dDkFH5Ff9M02Oupnt17l-141" value="FK" style="shape=partialRectangle;connectable=0;fillColor=none;top=0;left=0;bottom=0;right=0;editable=1;overflow=hidden;whiteSpace=wrap;html=1;labelBackgroundColor=none;strokeColor=#006658;fontColor=#5C5C5C;" vertex="1" parent="dDkFH5Ff9M02Oupnt17l-140">
          <mxGeometry width="30" height="30" as="geometry">
            <mxRectangle width="30" height="30" as="alternateBounds" />
          </mxGeometry>
        </mxCell>
        <mxCell id="dDkFH5Ff9M02Oupnt17l-142" value="Policy" style="shape=partialRectangle;connectable=0;fillColor=none;top=0;left=0;bottom=0;right=0;align=left;spacingLeft=6;overflow=hidden;whiteSpace=wrap;html=1;labelBackgroundColor=none;strokeColor=#006658;fontColor=#5C5C5C;" vertex="1" parent="dDkFH5Ff9M02Oupnt17l-140">
          <mxGeometry x="30" width="150" height="30" as="geometry">
            <mxRectangle width="150" height="30" as="alternateBounds" />
          </mxGeometry>
        </mxCell>
        <mxCell id="dDkFH5Ff9M02Oupnt17l-143" value="" style="shape=tableRow;horizontal=0;startSize=0;swimlaneHead=0;swimlaneBody=0;fillColor=none;collapsible=0;dropTarget=0;points=[[0,0.5],[1,0.5]];portConstraint=eastwest;top=0;left=0;right=0;bottom=0;labelBackgroundColor=none;strokeColor=#006658;fontColor=#5C5C5C;" vertex="1" parent="dDkFH5Ff9M02Oupnt17l-133">
          <mxGeometry y="120" width="180" height="40" as="geometry" />
        </mxCell>
        <mxCell id="dDkFH5Ff9M02Oupnt17l-144" value="FK" style="shape=partialRectangle;connectable=0;fillColor=none;top=0;left=0;bottom=0;right=0;editable=1;overflow=hidden;whiteSpace=wrap;html=1;labelBackgroundColor=none;strokeColor=#006658;fontColor=#5C5C5C;" vertex="1" parent="dDkFH5Ff9M02Oupnt17l-143">
          <mxGeometry width="30" height="40" as="geometry">
            <mxRectangle width="30" height="40" as="alternateBounds" />
          </mxGeometry>
        </mxCell>
        <mxCell id="dDkFH5Ff9M02Oupnt17l-145" value="Compensation" style="shape=partialRectangle;connectable=0;fillColor=none;top=0;left=0;bottom=0;right=0;align=left;spacingLeft=6;overflow=hidden;whiteSpace=wrap;html=1;allowArrows=1;recursiveResize=1;labelBackgroundColor=none;strokeColor=#006658;fontColor=#5C5C5C;" vertex="1" parent="dDkFH5Ff9M02Oupnt17l-143">
          <mxGeometry x="30" width="150" height="40" as="geometry">
            <mxRectangle width="150" height="40" as="alternateBounds" />
          </mxGeometry>
        </mxCell>
        <mxCell id="dDkFH5Ff9M02Oupnt17l-245" style="shape=tableRow;horizontal=0;startSize=0;swimlaneHead=0;swimlaneBody=0;fillColor=none;collapsible=0;dropTarget=0;points=[[0,0.5],[1,0.5]];portConstraint=eastwest;top=0;left=0;right=0;bottom=0;labelBackgroundColor=none;strokeColor=#006658;fontColor=#5C5C5C;" vertex="1" parent="dDkFH5Ff9M02Oupnt17l-133">
          <mxGeometry y="160" width="180" height="30" as="geometry" />
        </mxCell>
        <mxCell id="dDkFH5Ff9M02Oupnt17l-246" value="FK" style="shape=partialRectangle;connectable=0;fillColor=none;top=0;left=0;bottom=0;right=0;editable=1;overflow=hidden;whiteSpace=wrap;html=1;labelBackgroundColor=none;strokeColor=#006658;fontColor=#5C5C5C;" vertex="1" parent="dDkFH5Ff9M02Oupnt17l-245">
          <mxGeometry width="30" height="30" as="geometry">
            <mxRectangle width="30" height="30" as="alternateBounds" />
          </mxGeometry>
        </mxCell>
        <mxCell id="dDkFH5Ff9M02Oupnt17l-247" value="Claim_id" style="shape=partialRectangle;connectable=0;fillColor=none;top=0;left=0;bottom=0;right=0;align=left;spacingLeft=6;overflow=hidden;whiteSpace=wrap;html=1;allowArrows=1;recursiveResize=1;labelBackgroundColor=none;strokeColor=#006658;fontColor=#5C5C5C;" vertex="1" parent="dDkFH5Ff9M02Oupnt17l-245">
          <mxGeometry x="30" width="150" height="30" as="geometry">
            <mxRectangle width="150" height="30" as="alternateBounds" />
          </mxGeometry>
        </mxCell>
        <mxCell id="dDkFH5Ff9M02Oupnt17l-146" value="Claim" style="shape=table;startSize=30;container=1;collapsible=1;childLayout=tableLayout;fixedRows=1;rowLines=0;fontStyle=1;align=center;resizeLast=1;html=1;miterlimit=4;swimlaneLine=1;strokeColor=#006658;rounded=1;labelBackgroundColor=none;fillColor=#21C0A5;fontColor=#5C5C5C;" vertex="1" parent="1">
          <mxGeometry x="390" y="-90" width="180" height="400" as="geometry" />
        </mxCell>
        <mxCell id="dDkFH5Ff9M02Oupnt17l-147" value="" style="shape=tableRow;horizontal=0;startSize=0;swimlaneHead=0;swimlaneBody=0;fillColor=none;collapsible=0;dropTarget=0;points=[[0,0.5],[1,0.5]];portConstraint=eastwest;top=0;left=0;right=0;bottom=1;labelBackgroundColor=none;strokeColor=#006658;fontColor=#5C5C5C;" vertex="1" parent="dDkFH5Ff9M02Oupnt17l-146">
          <mxGeometry y="30" width="180" height="30" as="geometry" />
        </mxCell>
        <mxCell id="dDkFH5Ff9M02Oupnt17l-148" value="PK" style="shape=partialRectangle;connectable=0;fillColor=none;top=0;left=0;bottom=0;right=0;fontStyle=1;overflow=hidden;whiteSpace=wrap;html=1;labelBackgroundColor=none;strokeColor=#006658;fontColor=#5C5C5C;" vertex="1" parent="dDkFH5Ff9M02Oupnt17l-147">
          <mxGeometry width="30" height="30" as="geometry">
            <mxRectangle width="30" height="30" as="alternateBounds" />
          </mxGeometry>
        </mxCell>
        <mxCell id="dDkFH5Ff9M02Oupnt17l-149" value="Id_Claim" style="shape=partialRectangle;connectable=0;fillColor=none;top=0;left=0;bottom=0;right=0;align=left;spacingLeft=6;fontStyle=5;overflow=hidden;whiteSpace=wrap;html=1;labelBackgroundColor=none;strokeColor=#006658;fontColor=#5C5C5C;" vertex="1" parent="dDkFH5Ff9M02Oupnt17l-147">
          <mxGeometry x="30" width="150" height="30" as="geometry">
            <mxRectangle width="150" height="30" as="alternateBounds" />
          </mxGeometry>
        </mxCell>
        <mxCell id="dDkFH5Ff9M02Oupnt17l-150" value="" style="shape=tableRow;horizontal=0;startSize=0;swimlaneHead=0;swimlaneBody=0;fillColor=none;collapsible=0;dropTarget=0;points=[[0,0.5],[1,0.5]];portConstraint=eastwest;top=0;left=0;right=0;bottom=0;swimlaneLine=0;labelBackgroundColor=none;strokeColor=#006658;fontColor=#5C5C5C;" vertex="1" parent="dDkFH5Ff9M02Oupnt17l-146">
          <mxGeometry y="60" width="180" height="30" as="geometry" />
        </mxCell>
        <mxCell id="dDkFH5Ff9M02Oupnt17l-151" value="FK" style="shape=partialRectangle;connectable=0;fillColor=none;top=0;left=0;bottom=0;right=0;editable=1;overflow=hidden;whiteSpace=wrap;html=1;labelBackgroundColor=none;strokeColor=#006658;fontColor=#5C5C5C;" vertex="1" parent="dDkFH5Ff9M02Oupnt17l-150">
          <mxGeometry width="30" height="30" as="geometry">
            <mxRectangle width="30" height="30" as="alternateBounds" />
          </mxGeometry>
        </mxCell>
        <mxCell id="dDkFH5Ff9M02Oupnt17l-152" value="Client_Id" style="shape=partialRectangle;connectable=0;fillColor=none;top=0;left=0;bottom=0;right=0;align=left;spacingLeft=6;overflow=hidden;whiteSpace=wrap;html=1;labelBackgroundColor=none;strokeColor=#006658;fontColor=#5C5C5C;" vertex="1" parent="dDkFH5Ff9M02Oupnt17l-150">
          <mxGeometry x="30" width="150" height="30" as="geometry">
            <mxRectangle width="150" height="30" as="alternateBounds" />
          </mxGeometry>
        </mxCell>
        <mxCell id="dDkFH5Ff9M02Oupnt17l-156" value="" style="shape=tableRow;horizontal=0;startSize=0;swimlaneHead=0;swimlaneBody=0;fillColor=none;collapsible=0;dropTarget=0;points=[[0,0.5],[1,0.5]];portConstraint=eastwest;top=0;left=0;right=0;bottom=0;labelBackgroundColor=none;strokeColor=#006658;fontColor=#5C5C5C;" vertex="1" parent="dDkFH5Ff9M02Oupnt17l-146">
          <mxGeometry y="90" width="180" height="30" as="geometry" />
        </mxCell>
        <mxCell id="dDkFH5Ff9M02Oupnt17l-157" value="&#xa;&lt;span style=&quot;color: rgb(92, 92, 92); font-family: Helvetica; font-size: 12px; font-style: normal; font-variant-ligatures: normal; font-variant-caps: normal; font-weight: 400; letter-spacing: normal; orphans: 2; text-align: center; text-indent: 0px; text-transform: none; widows: 2; word-spacing: 0px; -webkit-text-stroke-width: 0px; white-space: normal; background-color: rgb(236, 236, 236); text-decoration-thickness: initial; text-decoration-style: initial; text-decoration-color: initial; display: inline !important; float: none;&quot;&gt;FK&lt;/span&gt;&#xa;&#xa;" style="shape=partialRectangle;connectable=0;fillColor=none;top=0;left=0;bottom=0;right=0;editable=1;overflow=hidden;whiteSpace=wrap;html=1;labelBackgroundColor=none;strokeColor=#006658;fontColor=#5C5C5C;" vertex="1" parent="dDkFH5Ff9M02Oupnt17l-156">
          <mxGeometry width="30" height="30" as="geometry">
            <mxRectangle width="30" height="30" as="alternateBounds" />
          </mxGeometry>
        </mxCell>
        <mxCell id="dDkFH5Ff9M02Oupnt17l-158" value="Counterparts" style="shape=partialRectangle;connectable=0;fillColor=none;top=0;left=0;bottom=0;right=0;align=left;spacingLeft=6;overflow=hidden;whiteSpace=wrap;html=1;allowArrows=1;recursiveResize=1;labelBackgroundColor=none;strokeColor=#006658;fontColor=#5C5C5C;" vertex="1" parent="dDkFH5Ff9M02Oupnt17l-156">
          <mxGeometry x="30" width="150" height="30" as="geometry">
            <mxRectangle width="150" height="30" as="alternateBounds" />
          </mxGeometry>
        </mxCell>
        <mxCell id="dDkFH5Ff9M02Oupnt17l-178" style="shape=tableRow;horizontal=0;startSize=0;swimlaneHead=0;swimlaneBody=0;fillColor=none;collapsible=0;dropTarget=0;points=[[0,0.5],[1,0.5]];portConstraint=eastwest;top=0;left=0;right=0;bottom=0;labelBackgroundColor=none;strokeColor=#006658;fontColor=#5C5C5C;" vertex="1" parent="dDkFH5Ff9M02Oupnt17l-146">
          <mxGeometry y="120" width="180" height="30" as="geometry" />
        </mxCell>
        <mxCell id="dDkFH5Ff9M02Oupnt17l-179" value="&#xa;&lt;span style=&quot;color: rgb(92, 92, 92); font-family: Helvetica; font-size: 12px; font-style: normal; font-variant-ligatures: normal; font-variant-caps: normal; font-weight: 400; letter-spacing: normal; orphans: 2; text-align: center; text-indent: 0px; text-transform: none; widows: 2; word-spacing: 0px; -webkit-text-stroke-width: 0px; white-space: normal; background-color: rgb(236, 236, 236); text-decoration-thickness: initial; text-decoration-style: initial; text-decoration-color: initial; display: inline !important; float: none;&quot;&gt;FK&lt;/span&gt;&#xa;&#xa;" style="shape=partialRectangle;connectable=0;fillColor=none;top=0;left=0;bottom=0;right=0;editable=1;overflow=hidden;whiteSpace=wrap;html=1;labelBackgroundColor=none;strokeColor=#006658;fontColor=#5C5C5C;" vertex="1" parent="dDkFH5Ff9M02Oupnt17l-178">
          <mxGeometry width="30" height="30" as="geometry">
            <mxRectangle width="30" height="30" as="alternateBounds" />
          </mxGeometry>
        </mxCell>
        <mxCell id="dDkFH5Ff9M02Oupnt17l-180" value="Vehicle" style="shape=partialRectangle;connectable=0;fillColor=none;top=0;left=0;bottom=0;right=0;align=left;spacingLeft=6;overflow=hidden;whiteSpace=wrap;html=1;allowArrows=1;recursiveResize=1;labelBackgroundColor=none;strokeColor=#006658;fontColor=#5C5C5C;" vertex="1" parent="dDkFH5Ff9M02Oupnt17l-178">
          <mxGeometry x="30" width="150" height="30" as="geometry">
            <mxRectangle width="150" height="30" as="alternateBounds" />
          </mxGeometry>
        </mxCell>
        <mxCell id="dDkFH5Ff9M02Oupnt17l-181" style="shape=tableRow;horizontal=0;startSize=0;swimlaneHead=0;swimlaneBody=0;fillColor=none;collapsible=0;dropTarget=0;points=[[0,0.5],[1,0.5]];portConstraint=eastwest;top=0;left=0;right=0;bottom=0;labelBackgroundColor=none;strokeColor=#006658;fontColor=#5C5C5C;" vertex="1" parent="dDkFH5Ff9M02Oupnt17l-146">
          <mxGeometry y="150" width="180" height="40" as="geometry" />
        </mxCell>
        <mxCell id="dDkFH5Ff9M02Oupnt17l-182" value="&#xa;&lt;span style=&quot;color: rgb(92, 92, 92); font-family: Helvetica; font-size: 12px; font-style: normal; font-variant-ligatures: normal; font-variant-caps: normal; font-weight: 400; letter-spacing: normal; orphans: 2; text-align: center; text-indent: 0px; text-transform: none; widows: 2; word-spacing: 0px; -webkit-text-stroke-width: 0px; white-space: normal; background-color: rgb(236, 236, 236); text-decoration-thickness: initial; text-decoration-style: initial; text-decoration-color: initial; display: inline !important; float: none;&quot;&gt;FK&lt;/span&gt;&#xa;&#xa;" style="shape=partialRectangle;connectable=0;fillColor=none;top=0;left=0;bottom=0;right=0;editable=1;overflow=hidden;whiteSpace=wrap;html=1;labelBackgroundColor=none;strokeColor=#006658;fontColor=#5C5C5C;" vertex="1" parent="dDkFH5Ff9M02Oupnt17l-181">
          <mxGeometry width="30" height="40" as="geometry">
            <mxRectangle width="30" height="40" as="alternateBounds" />
          </mxGeometry>
        </mxCell>
        <mxCell id="dDkFH5Ff9M02Oupnt17l-183" value="ExpertP" style="shape=partialRectangle;connectable=0;fillColor=none;top=0;left=0;bottom=0;right=0;align=left;spacingLeft=6;overflow=hidden;whiteSpace=wrap;html=1;allowArrows=1;recursiveResize=1;labelBackgroundColor=none;strokeColor=#006658;fontColor=#5C5C5C;" vertex="1" parent="dDkFH5Ff9M02Oupnt17l-181">
          <mxGeometry x="30" width="150" height="40" as="geometry">
            <mxRectangle width="150" height="40" as="alternateBounds" />
          </mxGeometry>
        </mxCell>
        <mxCell id="dDkFH5Ff9M02Oupnt17l-281" style="shape=tableRow;horizontal=0;startSize=0;swimlaneHead=0;swimlaneBody=0;fillColor=none;collapsible=0;dropTarget=0;points=[[0,0.5],[1,0.5]];portConstraint=eastwest;top=0;left=0;right=0;bottom=0;labelBackgroundColor=none;strokeColor=#006658;fontColor=#5C5C5C;" vertex="1" parent="dDkFH5Ff9M02Oupnt17l-146">
          <mxGeometry y="190" width="180" height="30" as="geometry" />
        </mxCell>
        <mxCell id="dDkFH5Ff9M02Oupnt17l-282" value="FK" style="shape=partialRectangle;connectable=0;fillColor=none;top=0;left=0;bottom=0;right=0;editable=1;overflow=hidden;whiteSpace=wrap;html=1;labelBackgroundColor=none;strokeColor=#006658;fontColor=#5C5C5C;" vertex="1" parent="dDkFH5Ff9M02Oupnt17l-281">
          <mxGeometry width="30" height="30" as="geometry">
            <mxRectangle width="30" height="30" as="alternateBounds" />
          </mxGeometry>
        </mxCell>
        <mxCell id="dDkFH5Ff9M02Oupnt17l-283" value="Expertise" style="shape=partialRectangle;connectable=0;fillColor=none;top=0;left=0;bottom=0;right=0;align=left;spacingLeft=6;overflow=hidden;whiteSpace=wrap;html=1;allowArrows=1;recursiveResize=1;labelBackgroundColor=none;strokeColor=#006658;fontColor=#5C5C5C;" vertex="1" parent="dDkFH5Ff9M02Oupnt17l-281">
          <mxGeometry x="30" width="150" height="30" as="geometry">
            <mxRectangle width="150" height="30" as="alternateBounds" />
          </mxGeometry>
        </mxCell>
        <mxCell id="dDkFH5Ff9M02Oupnt17l-184" style="shape=tableRow;horizontal=0;startSize=0;swimlaneHead=0;swimlaneBody=0;fillColor=none;collapsible=0;dropTarget=0;points=[[0,0.5],[1,0.5]];portConstraint=eastwest;top=0;left=0;right=0;bottom=0;labelBackgroundColor=none;strokeColor=#006658;fontColor=#5C5C5C;" vertex="1" parent="dDkFH5Ff9M02Oupnt17l-146">
          <mxGeometry y="220" width="180" height="30" as="geometry" />
        </mxCell>
        <mxCell id="dDkFH5Ff9M02Oupnt17l-185" value="&#xa;&lt;span style=&quot;color: rgb(92, 92, 92); font-family: Helvetica; font-size: 12px; font-style: normal; font-variant-ligatures: normal; font-variant-caps: normal; font-weight: 400; letter-spacing: normal; orphans: 2; text-align: center; text-indent: 0px; text-transform: none; widows: 2; word-spacing: 0px; -webkit-text-stroke-width: 0px; white-space: normal; background-color: rgb(236, 236, 236); text-decoration-thickness: initial; text-decoration-style: initial; text-decoration-color: initial; display: inline !important; float: none;&quot;&gt;FK&lt;/span&gt;&#xa;&#xa;" style="shape=partialRectangle;connectable=0;fillColor=none;top=0;left=0;bottom=0;right=0;editable=1;overflow=hidden;whiteSpace=wrap;html=1;labelBackgroundColor=none;strokeColor=#006658;fontColor=#5C5C5C;" vertex="1" parent="dDkFH5Ff9M02Oupnt17l-184">
          <mxGeometry width="30" height="30" as="geometry">
            <mxRectangle width="30" height="30" as="alternateBounds" />
          </mxGeometry>
        </mxCell>
        <mxCell id="dDkFH5Ff9M02Oupnt17l-186" value="Accountant" style="shape=partialRectangle;connectable=0;fillColor=none;top=0;left=0;bottom=0;right=0;align=left;spacingLeft=6;overflow=hidden;whiteSpace=wrap;html=1;allowArrows=1;recursiveResize=1;labelBackgroundColor=none;strokeColor=#006658;fontColor=#5C5C5C;" vertex="1" parent="dDkFH5Ff9M02Oupnt17l-184">
          <mxGeometry x="30" width="150" height="30" as="geometry">
            <mxRectangle width="150" height="30" as="alternateBounds" />
          </mxGeometry>
        </mxCell>
        <mxCell id="dDkFH5Ff9M02Oupnt17l-187" style="shape=tableRow;horizontal=0;startSize=0;swimlaneHead=0;swimlaneBody=0;fillColor=none;collapsible=0;dropTarget=0;points=[[0,0.5],[1,0.5]];portConstraint=eastwest;top=0;left=0;right=0;bottom=0;labelBackgroundColor=none;strokeColor=#006658;fontColor=#5C5C5C;" vertex="1" parent="dDkFH5Ff9M02Oupnt17l-146">
          <mxGeometry y="250" width="180" height="30" as="geometry" />
        </mxCell>
        <mxCell id="dDkFH5Ff9M02Oupnt17l-188" value="" style="shape=partialRectangle;connectable=0;fillColor=none;top=0;left=0;bottom=0;right=0;editable=1;overflow=hidden;whiteSpace=wrap;html=1;labelBackgroundColor=none;strokeColor=#006658;fontColor=#5C5C5C;" vertex="1" parent="dDkFH5Ff9M02Oupnt17l-187">
          <mxGeometry width="30" height="30" as="geometry">
            <mxRectangle width="30" height="30" as="alternateBounds" />
          </mxGeometry>
        </mxCell>
        <mxCell id="dDkFH5Ff9M02Oupnt17l-189" value="ClaimState&lt;span style=&quot;white-space: pre;&quot;&gt;&#x9;&lt;/span&gt;" style="shape=partialRectangle;connectable=0;fillColor=none;top=0;left=0;bottom=0;right=0;align=left;spacingLeft=6;overflow=hidden;whiteSpace=wrap;html=1;allowArrows=1;recursiveResize=1;labelBackgroundColor=none;strokeColor=#006658;fontColor=#5C5C5C;" vertex="1" parent="dDkFH5Ff9M02Oupnt17l-187">
          <mxGeometry x="30" width="150" height="30" as="geometry">
            <mxRectangle width="150" height="30" as="alternateBounds" />
          </mxGeometry>
        </mxCell>
        <mxCell id="dDkFH5Ff9M02Oupnt17l-190" style="shape=tableRow;horizontal=0;startSize=0;swimlaneHead=0;swimlaneBody=0;fillColor=none;collapsible=0;dropTarget=0;points=[[0,0.5],[1,0.5]];portConstraint=eastwest;top=0;left=0;right=0;bottom=0;labelBackgroundColor=none;strokeColor=#006658;fontColor=#5C5C5C;" vertex="1" parent="dDkFH5Ff9M02Oupnt17l-146">
          <mxGeometry y="280" width="180" height="30" as="geometry" />
        </mxCell>
        <mxCell id="dDkFH5Ff9M02Oupnt17l-191" value="&#xa;&lt;span style=&quot;color: rgb(92, 92, 92); font-family: Helvetica; font-size: 12px; font-style: normal; font-variant-ligatures: normal; font-variant-caps: normal; font-weight: 400; letter-spacing: normal; orphans: 2; text-align: center; text-indent: 0px; text-transform: none; widows: 2; word-spacing: 0px; -webkit-text-stroke-width: 0px; white-space: normal; background-color: rgb(236, 236, 236); text-decoration-thickness: initial; text-decoration-style: initial; text-decoration-color: initial; display: inline !important; float: none;&quot;&gt;FK&lt;/span&gt;&#xa;&#xa;" style="shape=partialRectangle;connectable=0;fillColor=none;top=0;left=0;bottom=0;right=0;editable=1;overflow=hidden;whiteSpace=wrap;html=1;labelBackgroundColor=none;strokeColor=#006658;fontColor=#5C5C5C;" vertex="1" parent="dDkFH5Ff9M02Oupnt17l-190">
          <mxGeometry width="30" height="30" as="geometry">
            <mxRectangle width="30" height="30" as="alternateBounds" />
          </mxGeometry>
        </mxCell>
        <mxCell id="dDkFH5Ff9M02Oupnt17l-192" value="Compensation&amp;nbsp;" style="shape=partialRectangle;connectable=0;fillColor=none;top=0;left=0;bottom=0;right=0;align=left;spacingLeft=6;overflow=hidden;whiteSpace=wrap;html=1;allowArrows=1;recursiveResize=1;labelBackgroundColor=none;strokeColor=#006658;fontColor=#5C5C5C;" vertex="1" parent="dDkFH5Ff9M02Oupnt17l-190">
          <mxGeometry x="30" width="150" height="30" as="geometry">
            <mxRectangle width="150" height="30" as="alternateBounds" />
          </mxGeometry>
        </mxCell>
        <mxCell id="dDkFH5Ff9M02Oupnt17l-242" style="shape=tableRow;horizontal=0;startSize=0;swimlaneHead=0;swimlaneBody=0;fillColor=none;collapsible=0;dropTarget=0;points=[[0,0.5],[1,0.5]];portConstraint=eastwest;top=0;left=0;right=0;bottom=0;labelBackgroundColor=none;strokeColor=#006658;fontColor=#5C5C5C;" vertex="1" parent="dDkFH5Ff9M02Oupnt17l-146">
          <mxGeometry y="310" width="180" height="30" as="geometry" />
        </mxCell>
        <mxCell id="dDkFH5Ff9M02Oupnt17l-243" value="FK" style="shape=partialRectangle;connectable=0;fillColor=none;top=0;left=0;bottom=0;right=0;editable=1;overflow=hidden;whiteSpace=wrap;html=1;labelBackgroundColor=none;strokeColor=#006658;fontColor=#5C5C5C;" vertex="1" parent="dDkFH5Ff9M02Oupnt17l-242">
          <mxGeometry width="30" height="30" as="geometry">
            <mxRectangle width="30" height="30" as="alternateBounds" />
          </mxGeometry>
        </mxCell>
        <mxCell id="dDkFH5Ff9M02Oupnt17l-244" value="Policy" style="shape=partialRectangle;connectable=0;fillColor=none;top=0;left=0;bottom=0;right=0;align=left;spacingLeft=6;overflow=hidden;whiteSpace=wrap;html=1;allowArrows=1;recursiveResize=1;labelBackgroundColor=none;strokeColor=#006658;fontColor=#5C5C5C;" vertex="1" parent="dDkFH5Ff9M02Oupnt17l-242">
          <mxGeometry x="30" width="150" height="30" as="geometry">
            <mxRectangle width="150" height="30" as="alternateBounds" />
          </mxGeometry>
        </mxCell>
        <mxCell id="dDkFH5Ff9M02Oupnt17l-353" style="shape=tableRow;horizontal=0;startSize=0;swimlaneHead=0;swimlaneBody=0;fillColor=none;collapsible=0;dropTarget=0;points=[[0,0.5],[1,0.5]];portConstraint=eastwest;top=0;left=0;right=0;bottom=0;labelBackgroundColor=none;strokeColor=#006658;fontColor=#5C5C5C;" vertex="1" parent="dDkFH5Ff9M02Oupnt17l-146">
          <mxGeometry y="340" width="180" height="30" as="geometry" />
        </mxCell>
        <mxCell id="dDkFH5Ff9M02Oupnt17l-354" style="shape=partialRectangle;connectable=0;fillColor=none;top=0;left=0;bottom=0;right=0;editable=1;overflow=hidden;whiteSpace=wrap;html=1;labelBackgroundColor=none;strokeColor=#006658;fontColor=#5C5C5C;" vertex="1" parent="dDkFH5Ff9M02Oupnt17l-353">
          <mxGeometry width="30" height="30" as="geometry">
            <mxRectangle width="30" height="30" as="alternateBounds" />
          </mxGeometry>
        </mxCell>
        <mxCell id="dDkFH5Ff9M02Oupnt17l-355" value="CreationDate" style="shape=partialRectangle;connectable=0;fillColor=none;top=0;left=0;bottom=0;right=0;align=left;spacingLeft=6;overflow=hidden;whiteSpace=wrap;html=1;allowArrows=1;recursiveResize=1;labelBackgroundColor=none;strokeColor=#006658;fontColor=#5C5C5C;" vertex="1" parent="dDkFH5Ff9M02Oupnt17l-353">
          <mxGeometry x="30" width="150" height="30" as="geometry">
            <mxRectangle width="150" height="30" as="alternateBounds" />
          </mxGeometry>
        </mxCell>
        <mxCell id="dDkFH5Ff9M02Oupnt17l-356" style="shape=tableRow;horizontal=0;startSize=0;swimlaneHead=0;swimlaneBody=0;fillColor=none;collapsible=0;dropTarget=0;points=[[0,0.5],[1,0.5]];portConstraint=eastwest;top=0;left=0;right=0;bottom=0;labelBackgroundColor=none;strokeColor=#006658;fontColor=#5C5C5C;" vertex="1" parent="dDkFH5Ff9M02Oupnt17l-146">
          <mxGeometry y="370" width="180" height="30" as="geometry" />
        </mxCell>
        <mxCell id="dDkFH5Ff9M02Oupnt17l-357" style="shape=partialRectangle;connectable=0;fillColor=none;top=0;left=0;bottom=0;right=0;editable=1;overflow=hidden;whiteSpace=wrap;html=1;labelBackgroundColor=none;strokeColor=#006658;fontColor=#5C5C5C;" vertex="1" parent="dDkFH5Ff9M02Oupnt17l-356">
          <mxGeometry width="30" height="30" as="geometry">
            <mxRectangle width="30" height="30" as="alternateBounds" />
          </mxGeometry>
        </mxCell>
        <mxCell id="dDkFH5Ff9M02Oupnt17l-358" value="ClaimDate" style="shape=partialRectangle;connectable=0;fillColor=none;top=0;left=0;bottom=0;right=0;align=left;spacingLeft=6;overflow=hidden;whiteSpace=wrap;html=1;allowArrows=1;recursiveResize=1;labelBackgroundColor=none;strokeColor=#006658;fontColor=#5C5C5C;" vertex="1" parent="dDkFH5Ff9M02Oupnt17l-356">
          <mxGeometry x="30" width="150" height="30" as="geometry">
            <mxRectangle width="150" height="30" as="alternateBounds" />
          </mxGeometry>
        </mxCell>
        <mxCell id="dDkFH5Ff9M02Oupnt17l-159" value="Employee" style="shape=table;startSize=30;container=1;collapsible=1;childLayout=tableLayout;fixedRows=1;rowLines=0;fontStyle=1;align=center;resizeLast=1;html=1;miterlimit=4;swimlaneLine=1;strokeColor=#006658;rounded=1;labelBackgroundColor=none;fillColor=#21C0A5;fontColor=#5C5C5C;" vertex="1" parent="1">
          <mxGeometry x="390" y="-290" width="180" height="120" as="geometry" />
        </mxCell>
        <mxCell id="dDkFH5Ff9M02Oupnt17l-160" value="" style="shape=tableRow;horizontal=0;startSize=0;swimlaneHead=0;swimlaneBody=0;fillColor=none;collapsible=0;dropTarget=0;points=[[0,0.5],[1,0.5]];portConstraint=eastwest;top=0;left=0;right=0;bottom=1;labelBackgroundColor=none;strokeColor=#006658;fontColor=#5C5C5C;" vertex="1" parent="dDkFH5Ff9M02Oupnt17l-159">
          <mxGeometry y="30" width="180" height="30" as="geometry" />
        </mxCell>
        <mxCell id="dDkFH5Ff9M02Oupnt17l-161" value="PK" style="shape=partialRectangle;connectable=0;fillColor=none;top=0;left=0;bottom=0;right=0;fontStyle=1;overflow=hidden;whiteSpace=wrap;html=1;labelBackgroundColor=none;strokeColor=#006658;fontColor=#5C5C5C;" vertex="1" parent="dDkFH5Ff9M02Oupnt17l-160">
          <mxGeometry width="30" height="30" as="geometry">
            <mxRectangle width="30" height="30" as="alternateBounds" />
          </mxGeometry>
        </mxCell>
        <mxCell id="dDkFH5Ff9M02Oupnt17l-162" value="Id_User" style="shape=partialRectangle;connectable=0;fillColor=none;top=0;left=0;bottom=0;right=0;align=left;spacingLeft=6;fontStyle=5;overflow=hidden;whiteSpace=wrap;html=1;labelBackgroundColor=none;strokeColor=#006658;fontColor=#5C5C5C;" vertex="1" parent="dDkFH5Ff9M02Oupnt17l-160">
          <mxGeometry x="30" width="150" height="30" as="geometry">
            <mxRectangle width="150" height="30" as="alternateBounds" />
          </mxGeometry>
        </mxCell>
        <mxCell id="dDkFH5Ff9M02Oupnt17l-163" value="" style="shape=tableRow;horizontal=0;startSize=0;swimlaneHead=0;swimlaneBody=0;fillColor=none;collapsible=0;dropTarget=0;points=[[0,0.5],[1,0.5]];portConstraint=eastwest;top=0;left=0;right=0;bottom=0;swimlaneLine=0;labelBackgroundColor=none;strokeColor=#006658;fontColor=#5C5C5C;" vertex="1" parent="dDkFH5Ff9M02Oupnt17l-159">
          <mxGeometry y="60" width="180" height="30" as="geometry" />
        </mxCell>
        <mxCell id="dDkFH5Ff9M02Oupnt17l-164" value="FK" style="shape=partialRectangle;connectable=0;fillColor=none;top=0;left=0;bottom=0;right=0;editable=1;overflow=hidden;whiteSpace=wrap;html=1;labelBackgroundColor=none;strokeColor=#006658;fontColor=#5C5C5C;" vertex="1" parent="dDkFH5Ff9M02Oupnt17l-163">
          <mxGeometry width="30" height="30" as="geometry">
            <mxRectangle width="30" height="30" as="alternateBounds" />
          </mxGeometry>
        </mxCell>
        <mxCell id="dDkFH5Ff9M02Oupnt17l-165" value="Anag" style="shape=partialRectangle;connectable=0;fillColor=none;top=0;left=0;bottom=0;right=0;align=left;spacingLeft=6;overflow=hidden;whiteSpace=wrap;html=1;labelBackgroundColor=none;strokeColor=#006658;fontColor=#5C5C5C;" vertex="1" parent="dDkFH5Ff9M02Oupnt17l-163">
          <mxGeometry x="30" width="150" height="30" as="geometry">
            <mxRectangle width="150" height="30" as="alternateBounds" />
          </mxGeometry>
        </mxCell>
        <mxCell id="dDkFH5Ff9M02Oupnt17l-371" style="shape=tableRow;horizontal=0;startSize=0;swimlaneHead=0;swimlaneBody=0;fillColor=none;collapsible=0;dropTarget=0;points=[[0,0.5],[1,0.5]];portConstraint=eastwest;top=0;left=0;right=0;bottom=0;swimlaneLine=0;labelBackgroundColor=none;strokeColor=#006658;fontColor=#5C5C5C;" vertex="1" parent="dDkFH5Ff9M02Oupnt17l-159">
          <mxGeometry y="90" width="180" height="30" as="geometry" />
        </mxCell>
        <mxCell id="dDkFH5Ff9M02Oupnt17l-372" value="FK" style="shape=partialRectangle;connectable=0;fillColor=none;top=0;left=0;bottom=0;right=0;editable=1;overflow=hidden;whiteSpace=wrap;html=1;labelBackgroundColor=none;strokeColor=#006658;fontColor=#5C5C5C;" vertex="1" parent="dDkFH5Ff9M02Oupnt17l-371">
          <mxGeometry width="30" height="30" as="geometry">
            <mxRectangle width="30" height="30" as="alternateBounds" />
          </mxGeometry>
        </mxCell>
        <mxCell id="dDkFH5Ff9M02Oupnt17l-373" value="Claim_ID" style="shape=partialRectangle;connectable=0;fillColor=none;top=0;left=0;bottom=0;right=0;align=left;spacingLeft=6;overflow=hidden;whiteSpace=wrap;html=1;labelBackgroundColor=none;strokeColor=#006658;fontColor=#5C5C5C;" vertex="1" parent="dDkFH5Ff9M02Oupnt17l-371">
          <mxGeometry x="30" width="150" height="30" as="geometry">
            <mxRectangle width="150" height="30" as="alternateBounds" />
          </mxGeometry>
        </mxCell>
        <mxCell id="dDkFH5Ff9M02Oupnt17l-175" value="" style="edgeStyle=entityRelationEdgeStyle;fontSize=12;html=1;endArrow=ERmandOne;startArrow=ERmandOne;rounded=0;strokeColor=#006658;fontColor=#5C5C5C;fillColor=#21C0A5;entryX=0;entryY=0.5;entryDx=0;entryDy=0;exitX=1;exitY=0.5;exitDx=0;exitDy=0;" edge="1" parent="1" source="dDkFH5Ff9M02Oupnt17l-92" target="dDkFH5Ff9M02Oupnt17l-163">
          <mxGeometry width="100" height="100" relative="1" as="geometry">
            <mxPoint x="240" y="-90" as="sourcePoint" />
            <mxPoint x="340" y="-190" as="targetPoint" />
            <Array as="points">
              <mxPoint x="200" y="-130" />
              <mxPoint x="260" y="-60" />
              <mxPoint x="160" y="-120" />
              <mxPoint x="150" y="-130" />
              <mxPoint x="340" y="-140" />
            </Array>
          </mxGeometry>
        </mxCell>
        <mxCell id="dDkFH5Ff9M02Oupnt17l-176" value="" style="edgeStyle=entityRelationEdgeStyle;fontSize=12;html=1;endArrow=ERmandOne;startArrow=ERmandOne;rounded=0;strokeColor=#006658;fontColor=#5C5C5C;fillColor=#21C0A5;entryX=0;entryY=0.5;entryDx=0;entryDy=0;exitX=1;exitY=0.5;exitDx=0;exitDy=0;" edge="1" parent="1" source="dDkFH5Ff9M02Oupnt17l-92" target="dDkFH5Ff9M02Oupnt17l-127">
          <mxGeometry width="100" height="100" relative="1" as="geometry">
            <mxPoint x="610" y="100" as="sourcePoint" />
            <mxPoint x="710" as="targetPoint" />
          </mxGeometry>
        </mxCell>
        <mxCell id="dDkFH5Ff9M02Oupnt17l-177" value="" style="edgeStyle=entityRelationEdgeStyle;fontSize=12;html=1;endArrow=ERmandOne;startArrow=ERmandOne;rounded=0;strokeColor=#006658;fontColor=#5C5C5C;fillColor=#21C0A5;exitX=1;exitY=0.5;exitDx=0;exitDy=0;" edge="1" parent="1" source="dDkFH5Ff9M02Oupnt17l-92" target="dDkFH5Ff9M02Oupnt17l-137">
          <mxGeometry width="100" height="100" relative="1" as="geometry">
            <mxPoint x="770" y="100" as="sourcePoint" />
            <mxPoint x="870" as="targetPoint" />
          </mxGeometry>
        </mxCell>
        <mxCell id="dDkFH5Ff9M02Oupnt17l-193" value="" style="edgeStyle=entityRelationEdgeStyle;fontSize=12;html=1;endArrow=ERmany;rounded=0;strokeColor=#006658;fontColor=#5C5C5C;fillColor=#21C0A5;exitX=1;exitY=0.5;exitDx=0;exitDy=0;entryX=0;entryY=0.5;entryDx=0;entryDy=0;" edge="1" parent="1" source="dDkFH5Ff9M02Oupnt17l-6" target="dDkFH5Ff9M02Oupnt17l-150">
          <mxGeometry width="100" height="100" relative="1" as="geometry">
            <mxPoint x="520" y="250" as="sourcePoint" />
            <mxPoint x="620" y="150" as="targetPoint" />
          </mxGeometry>
        </mxCell>
        <mxCell id="dDkFH5Ff9M02Oupnt17l-195" value="Counterpart" style="shape=table;startSize=30;container=1;collapsible=1;childLayout=tableLayout;fixedRows=1;rowLines=0;fontStyle=1;align=center;resizeLast=1;html=1;labelBackgroundColor=none;fillColor=#21C0A5;strokeColor=#006658;fontColor=#5C5C5C;rounded=1;" vertex="1" parent="1">
          <mxGeometry x="420" y="610" width="180" height="150" as="geometry" />
        </mxCell>
        <mxCell id="dDkFH5Ff9M02Oupnt17l-196" value="" style="shape=tableRow;horizontal=0;startSize=0;swimlaneHead=0;swimlaneBody=0;fillColor=none;collapsible=0;dropTarget=0;points=[[0,0.5],[1,0.5]];portConstraint=eastwest;top=0;left=0;right=0;bottom=1;labelBackgroundColor=none;strokeColor=#006658;fontColor=#5C5C5C;" vertex="1" parent="dDkFH5Ff9M02Oupnt17l-195">
          <mxGeometry y="30" width="180" height="30" as="geometry" />
        </mxCell>
        <mxCell id="dDkFH5Ff9M02Oupnt17l-197" value="PK" style="shape=partialRectangle;connectable=0;fillColor=none;top=0;left=0;bottom=0;right=0;fontStyle=1;overflow=hidden;whiteSpace=wrap;html=1;labelBackgroundColor=none;strokeColor=#006658;fontColor=#5C5C5C;" vertex="1" parent="dDkFH5Ff9M02Oupnt17l-196">
          <mxGeometry width="30" height="30" as="geometry">
            <mxRectangle width="30" height="30" as="alternateBounds" />
          </mxGeometry>
        </mxCell>
        <mxCell id="dDkFH5Ff9M02Oupnt17l-198" value="Id" style="shape=partialRectangle;connectable=0;fillColor=none;top=0;left=0;bottom=0;right=0;align=left;spacingLeft=6;fontStyle=5;overflow=hidden;whiteSpace=wrap;html=1;labelBackgroundColor=none;strokeColor=#006658;fontColor=#5C5C5C;" vertex="1" parent="dDkFH5Ff9M02Oupnt17l-196">
          <mxGeometry x="30" width="150" height="30" as="geometry">
            <mxRectangle width="150" height="30" as="alternateBounds" />
          </mxGeometry>
        </mxCell>
        <mxCell id="dDkFH5Ff9M02Oupnt17l-199" value="" style="shape=tableRow;horizontal=0;startSize=0;swimlaneHead=0;swimlaneBody=0;fillColor=none;collapsible=0;dropTarget=0;points=[[0,0.5],[1,0.5]];portConstraint=eastwest;top=0;left=0;right=0;bottom=0;labelBackgroundColor=none;strokeColor=#006658;fontColor=#5C5C5C;" vertex="1" parent="dDkFH5Ff9M02Oupnt17l-195">
          <mxGeometry y="60" width="180" height="30" as="geometry" />
        </mxCell>
        <mxCell id="dDkFH5Ff9M02Oupnt17l-200" value="FK" style="shape=partialRectangle;connectable=0;fillColor=none;top=0;left=0;bottom=0;right=0;editable=1;overflow=hidden;whiteSpace=wrap;html=1;labelBackgroundColor=none;strokeColor=#006658;fontColor=#5C5C5C;" vertex="1" parent="dDkFH5Ff9M02Oupnt17l-199">
          <mxGeometry width="30" height="30" as="geometry">
            <mxRectangle width="30" height="30" as="alternateBounds" />
          </mxGeometry>
        </mxCell>
        <mxCell id="dDkFH5Ff9M02Oupnt17l-201" value="Anag" style="shape=partialRectangle;connectable=0;fillColor=none;top=0;left=0;bottom=0;right=0;align=left;spacingLeft=6;overflow=hidden;whiteSpace=wrap;html=1;labelBackgroundColor=none;strokeColor=#006658;fontColor=#5C5C5C;" vertex="1" parent="dDkFH5Ff9M02Oupnt17l-199">
          <mxGeometry x="30" width="150" height="30" as="geometry">
            <mxRectangle width="150" height="30" as="alternateBounds" />
          </mxGeometry>
        </mxCell>
        <mxCell id="dDkFH5Ff9M02Oupnt17l-202" value="" style="shape=tableRow;horizontal=0;startSize=0;swimlaneHead=0;swimlaneBody=0;fillColor=none;collapsible=0;dropTarget=0;points=[[0,0.5],[1,0.5]];portConstraint=eastwest;top=0;left=0;right=0;bottom=0;labelBackgroundColor=none;strokeColor=#006658;fontColor=#5C5C5C;" vertex="1" parent="dDkFH5Ff9M02Oupnt17l-195">
          <mxGeometry y="90" width="180" height="30" as="geometry" />
        </mxCell>
        <mxCell id="dDkFH5Ff9M02Oupnt17l-203" value="FK" style="shape=partialRectangle;connectable=0;fillColor=none;top=0;left=0;bottom=0;right=0;editable=1;overflow=hidden;whiteSpace=wrap;html=1;labelBackgroundColor=none;strokeColor=#006658;fontColor=#5C5C5C;" vertex="1" parent="dDkFH5Ff9M02Oupnt17l-202">
          <mxGeometry width="30" height="30" as="geometry">
            <mxRectangle width="30" height="30" as="alternateBounds" />
          </mxGeometry>
        </mxCell>
        <mxCell id="dDkFH5Ff9M02Oupnt17l-204" value="Vehicle" style="shape=partialRectangle;connectable=0;fillColor=none;top=0;left=0;bottom=0;right=0;align=left;spacingLeft=6;overflow=hidden;whiteSpace=wrap;html=1;labelBackgroundColor=none;strokeColor=#006658;fontColor=#5C5C5C;" vertex="1" parent="dDkFH5Ff9M02Oupnt17l-202">
          <mxGeometry x="30" width="150" height="30" as="geometry">
            <mxRectangle width="150" height="30" as="alternateBounds" />
          </mxGeometry>
        </mxCell>
        <mxCell id="dDkFH5Ff9M02Oupnt17l-205" value="" style="shape=tableRow;horizontal=0;startSize=0;swimlaneHead=0;swimlaneBody=0;fillColor=none;collapsible=0;dropTarget=0;points=[[0,0.5],[1,0.5]];portConstraint=eastwest;top=0;left=0;right=0;bottom=0;labelBackgroundColor=none;strokeColor=#006658;fontColor=#5C5C5C;" vertex="1" parent="dDkFH5Ff9M02Oupnt17l-195">
          <mxGeometry y="120" width="180" height="30" as="geometry" />
        </mxCell>
        <mxCell id="dDkFH5Ff9M02Oupnt17l-206" value="" style="shape=partialRectangle;connectable=0;fillColor=none;top=0;left=0;bottom=0;right=0;editable=1;overflow=hidden;whiteSpace=wrap;html=1;labelBackgroundColor=none;strokeColor=#006658;fontColor=#5C5C5C;" vertex="1" parent="dDkFH5Ff9M02Oupnt17l-205">
          <mxGeometry width="30" height="30" as="geometry">
            <mxRectangle width="30" height="30" as="alternateBounds" />
          </mxGeometry>
        </mxCell>
        <mxCell id="dDkFH5Ff9M02Oupnt17l-207" value="InsuranceAgent" style="shape=partialRectangle;connectable=0;fillColor=none;top=0;left=0;bottom=0;right=0;align=left;spacingLeft=6;overflow=hidden;whiteSpace=wrap;html=1;labelBackgroundColor=none;strokeColor=#006658;fontColor=#5C5C5C;" vertex="1" parent="dDkFH5Ff9M02Oupnt17l-205">
          <mxGeometry x="30" width="150" height="30" as="geometry">
            <mxRectangle width="150" height="30" as="alternateBounds" />
          </mxGeometry>
        </mxCell>
        <mxCell id="dDkFH5Ff9M02Oupnt17l-208" value="" style="edgeStyle=entityRelationEdgeStyle;fontSize=12;html=1;endArrow=ERoneToMany;rounded=0;strokeColor=#006658;fontColor=#5C5C5C;fillColor=#21C0A5;entryX=0;entryY=0.5;entryDx=0;entryDy=0;" edge="1" parent="1" source="dDkFH5Ff9M02Oupnt17l-22" target="dDkFH5Ff9M02Oupnt17l-202">
          <mxGeometry width="100" height="100" relative="1" as="geometry">
            <mxPoint x="300" y="610" as="sourcePoint" />
            <mxPoint x="400" y="510" as="targetPoint" />
          </mxGeometry>
        </mxCell>
        <mxCell id="dDkFH5Ff9M02Oupnt17l-210" value="" style="edgeStyle=entityRelationEdgeStyle;fontSize=12;html=1;endArrow=ERoneToMany;rounded=0;strokeColor=#006658;fontColor=#5C5C5C;fillColor=#21C0A5;exitX=1;exitY=0.5;exitDx=0;exitDy=0;entryX=0;entryY=0.5;entryDx=0;entryDy=0;" edge="1" parent="1" source="dDkFH5Ff9M02Oupnt17l-19" target="dDkFH5Ff9M02Oupnt17l-178">
          <mxGeometry width="100" height="100" relative="1" as="geometry">
            <mxPoint x="470" y="510" as="sourcePoint" />
            <mxPoint x="570" y="410" as="targetPoint" />
          </mxGeometry>
        </mxCell>
        <mxCell id="dDkFH5Ff9M02Oupnt17l-211" value="" style="endArrow=none;html=1;rounded=0;dashed=1;dashPattern=1 2;strokeColor=#006658;fontColor=#5C5C5C;fillColor=#21C0A5;exitX=0;exitY=0.5;exitDx=0;exitDy=0;entryX=0;entryY=0.5;entryDx=0;entryDy=0;" edge="1" parent="1" source="dDkFH5Ff9M02Oupnt17l-156" target="dDkFH5Ff9M02Oupnt17l-196">
          <mxGeometry relative="1" as="geometry">
            <mxPoint x="440" y="460" as="sourcePoint" />
            <mxPoint x="600" y="460" as="targetPoint" />
          </mxGeometry>
        </mxCell>
        <mxCell id="dDkFH5Ff9M02Oupnt17l-212" value="1" style="resizable=0;html=1;whiteSpace=wrap;align=right;verticalAlign=bottom;strokeColor=#006658;fontColor=#5C5C5C;fillColor=#21C0A5;" connectable="0" vertex="1" parent="dDkFH5Ff9M02Oupnt17l-211">
          <mxGeometry x="1" relative="1" as="geometry" />
        </mxCell>
        <mxCell id="dDkFH5Ff9M02Oupnt17l-214" value="" style="edgeStyle=entityRelationEdgeStyle;fontSize=12;html=1;endArrow=ERmandOne;startArrow=ERmandOne;rounded=0;strokeColor=#006658;fontColor=#5C5C5C;fillColor=#21C0A5;exitX=1;exitY=0.5;exitDx=0;exitDy=0;entryX=0;entryY=0.5;entryDx=0;entryDy=0;" edge="1" parent="1" source="dDkFH5Ff9M02Oupnt17l-184" target="dDkFH5Ff9M02Oupnt17l-245">
          <mxGeometry width="100" height="100" relative="1" as="geometry">
            <mxPoint x="700" y="280" as="sourcePoint" />
            <mxPoint x="800" y="180" as="targetPoint" />
          </mxGeometry>
        </mxCell>
        <mxCell id="dDkFH5Ff9M02Oupnt17l-229" value="Compensaton" style="shape=table;startSize=30;container=1;collapsible=1;childLayout=tableLayout;fixedRows=1;rowLines=0;fontStyle=1;align=center;resizeLast=1;html=1;miterlimit=4;swimlaneLine=1;strokeColor=#006658;rounded=1;labelBackgroundColor=none;fillColor=#21C0A5;fontColor=#5C5C5C;" vertex="1" parent="1">
          <mxGeometry x="1080" y="150" width="180" height="150" as="geometry" />
        </mxCell>
        <mxCell id="dDkFH5Ff9M02Oupnt17l-230" value="" style="shape=tableRow;horizontal=0;startSize=0;swimlaneHead=0;swimlaneBody=0;fillColor=none;collapsible=0;dropTarget=0;points=[[0,0.5],[1,0.5]];portConstraint=eastwest;top=0;left=0;right=0;bottom=1;labelBackgroundColor=none;strokeColor=#006658;fontColor=#5C5C5C;" vertex="1" parent="dDkFH5Ff9M02Oupnt17l-229">
          <mxGeometry y="30" width="180" height="30" as="geometry" />
        </mxCell>
        <mxCell id="dDkFH5Ff9M02Oupnt17l-231" value="PK" style="shape=partialRectangle;connectable=0;fillColor=none;top=0;left=0;bottom=0;right=0;fontStyle=1;overflow=hidden;whiteSpace=wrap;html=1;labelBackgroundColor=none;strokeColor=#006658;fontColor=#5C5C5C;" vertex="1" parent="dDkFH5Ff9M02Oupnt17l-230">
          <mxGeometry width="30" height="30" as="geometry">
            <mxRectangle width="30" height="30" as="alternateBounds" />
          </mxGeometry>
        </mxCell>
        <mxCell id="dDkFH5Ff9M02Oupnt17l-232" value="Id" style="shape=partialRectangle;connectable=0;fillColor=none;top=0;left=0;bottom=0;right=0;align=left;spacingLeft=6;fontStyle=5;overflow=hidden;whiteSpace=wrap;html=1;labelBackgroundColor=none;strokeColor=#006658;fontColor=#5C5C5C;" vertex="1" parent="dDkFH5Ff9M02Oupnt17l-230">
          <mxGeometry x="30" width="150" height="30" as="geometry">
            <mxRectangle width="150" height="30" as="alternateBounds" />
          </mxGeometry>
        </mxCell>
        <mxCell id="dDkFH5Ff9M02Oupnt17l-233" value="" style="shape=tableRow;horizontal=0;startSize=0;swimlaneHead=0;swimlaneBody=0;fillColor=none;collapsible=0;dropTarget=0;points=[[0,0.5],[1,0.5]];portConstraint=eastwest;top=0;left=0;right=0;bottom=0;swimlaneLine=0;labelBackgroundColor=none;strokeColor=#006658;fontColor=#5C5C5C;" vertex="1" parent="dDkFH5Ff9M02Oupnt17l-229">
          <mxGeometry y="60" width="180" height="30" as="geometry" />
        </mxCell>
        <mxCell id="dDkFH5Ff9M02Oupnt17l-234" value="" style="shape=partialRectangle;connectable=0;fillColor=none;top=0;left=0;bottom=0;right=0;editable=1;overflow=hidden;whiteSpace=wrap;html=1;labelBackgroundColor=none;strokeColor=#006658;fontColor=#5C5C5C;" vertex="1" parent="dDkFH5Ff9M02Oupnt17l-233">
          <mxGeometry width="30" height="30" as="geometry">
            <mxRectangle width="30" height="30" as="alternateBounds" />
          </mxGeometry>
        </mxCell>
        <mxCell id="dDkFH5Ff9M02Oupnt17l-235" value="Invoice" style="shape=partialRectangle;connectable=0;fillColor=none;top=0;left=0;bottom=0;right=0;align=left;spacingLeft=6;overflow=hidden;whiteSpace=wrap;html=1;labelBackgroundColor=none;strokeColor=#006658;fontColor=#5C5C5C;" vertex="1" parent="dDkFH5Ff9M02Oupnt17l-233">
          <mxGeometry x="30" width="150" height="30" as="geometry">
            <mxRectangle width="150" height="30" as="alternateBounds" />
          </mxGeometry>
        </mxCell>
        <mxCell id="dDkFH5Ff9M02Oupnt17l-236" value="" style="shape=tableRow;horizontal=0;startSize=0;swimlaneHead=0;swimlaneBody=0;fillColor=none;collapsible=0;dropTarget=0;points=[[0,0.5],[1,0.5]];portConstraint=eastwest;top=0;left=0;right=0;bottom=0;swimlaneLine=0;labelBackgroundColor=none;strokeColor=#006658;fontColor=#5C5C5C;" vertex="1" parent="dDkFH5Ff9M02Oupnt17l-229">
          <mxGeometry y="90" width="180" height="30" as="geometry" />
        </mxCell>
        <mxCell id="dDkFH5Ff9M02Oupnt17l-237" value="FK" style="shape=partialRectangle;connectable=0;fillColor=none;top=0;left=0;bottom=0;right=0;editable=1;overflow=hidden;whiteSpace=wrap;html=1;labelBackgroundColor=none;strokeColor=#006658;fontColor=#5C5C5C;" vertex="1" parent="dDkFH5Ff9M02Oupnt17l-236">
          <mxGeometry width="30" height="30" as="geometry">
            <mxRectangle width="30" height="30" as="alternateBounds" />
          </mxGeometry>
        </mxCell>
        <mxCell id="dDkFH5Ff9M02Oupnt17l-238" value="Id_Claim" style="shape=partialRectangle;connectable=0;fillColor=none;top=0;left=0;bottom=0;right=0;align=left;spacingLeft=6;overflow=hidden;whiteSpace=wrap;html=1;labelBackgroundColor=none;strokeColor=#006658;fontColor=#5C5C5C;" vertex="1" parent="dDkFH5Ff9M02Oupnt17l-236">
          <mxGeometry x="30" width="150" height="30" as="geometry">
            <mxRectangle width="150" height="30" as="alternateBounds" />
          </mxGeometry>
        </mxCell>
        <mxCell id="dDkFH5Ff9M02Oupnt17l-239" value="" style="shape=tableRow;horizontal=0;startSize=0;swimlaneHead=0;swimlaneBody=0;fillColor=none;collapsible=0;dropTarget=0;points=[[0,0.5],[1,0.5]];portConstraint=eastwest;top=0;left=0;right=0;bottom=0;labelBackgroundColor=none;strokeColor=#006658;fontColor=#5C5C5C;" vertex="1" parent="dDkFH5Ff9M02Oupnt17l-229">
          <mxGeometry y="120" width="180" height="30" as="geometry" />
        </mxCell>
        <mxCell id="dDkFH5Ff9M02Oupnt17l-240" value="FK" style="shape=partialRectangle;connectable=0;fillColor=none;top=0;left=0;bottom=0;right=0;editable=1;overflow=hidden;whiteSpace=wrap;html=1;labelBackgroundColor=none;strokeColor=#006658;fontColor=#5C5C5C;" vertex="1" parent="dDkFH5Ff9M02Oupnt17l-239">
          <mxGeometry width="30" height="30" as="geometry">
            <mxRectangle width="30" height="30" as="alternateBounds" />
          </mxGeometry>
        </mxCell>
        <mxCell id="dDkFH5Ff9M02Oupnt17l-241" value="Accountant_Id" style="shape=partialRectangle;connectable=0;fillColor=none;top=0;left=0;bottom=0;right=0;align=left;spacingLeft=6;overflow=hidden;whiteSpace=wrap;html=1;allowArrows=1;recursiveResize=1;labelBackgroundColor=none;strokeColor=#006658;fontColor=#5C5C5C;" vertex="1" parent="dDkFH5Ff9M02Oupnt17l-239">
          <mxGeometry x="30" width="150" height="30" as="geometry">
            <mxRectangle width="150" height="30" as="alternateBounds" />
          </mxGeometry>
        </mxCell>
        <mxCell id="dDkFH5Ff9M02Oupnt17l-248" value="" style="edgeStyle=entityRelationEdgeStyle;fontSize=12;html=1;endArrow=ERoneToMany;rounded=0;strokeColor=#006658;fontColor=#5C5C5C;fillColor=#21C0A5;entryX=1;entryY=0.5;entryDx=0;entryDy=0;" edge="1" parent="1" source="dDkFH5Ff9M02Oupnt17l-143" target="dDkFH5Ff9M02Oupnt17l-230">
          <mxGeometry width="100" height="100" relative="1" as="geometry">
            <mxPoint x="1680" y="210" as="sourcePoint" />
            <mxPoint x="1500" y="70" as="targetPoint" />
            <Array as="points">
              <mxPoint x="1900" y="155" />
            </Array>
          </mxGeometry>
        </mxCell>
        <mxCell id="dDkFH5Ff9M02Oupnt17l-250" value="" style="edgeStyle=entityRelationEdgeStyle;fontSize=12;html=1;endArrow=ERmandOne;startArrow=ERmandOne;rounded=0;strokeColor=#006658;fontColor=#5C5C5C;fillColor=#21C0A5;exitX=1;exitY=0.5;exitDx=0;exitDy=0;entryX=0;entryY=0.5;entryDx=0;entryDy=0;" edge="1" parent="1" source="dDkFH5Ff9M02Oupnt17l-190" target="dDkFH5Ff9M02Oupnt17l-236">
          <mxGeometry width="100" height="100" relative="1" as="geometry">
            <mxPoint x="820" y="260" as="sourcePoint" />
            <mxPoint x="920" y="160" as="targetPoint" />
          </mxGeometry>
        </mxCell>
        <mxCell id="dDkFH5Ff9M02Oupnt17l-251" value="" style="edgeStyle=entityRelationEdgeStyle;fontSize=12;html=1;endArrow=ERmandOne;startArrow=ERmandOne;rounded=0;strokeColor=#006658;fontColor=#5C5C5C;fillColor=#21C0A5;exitX=1;exitY=0.5;exitDx=0;exitDy=0;entryX=0;entryY=0.5;entryDx=0;entryDy=0;" edge="1" parent="1" source="dDkFH5Ff9M02Oupnt17l-196" target="dDkFH5Ff9M02Oupnt17l-239">
          <mxGeometry width="100" height="100" relative="1" as="geometry">
            <mxPoint x="820" y="420" as="sourcePoint" />
            <mxPoint x="920" y="320" as="targetPoint" />
          </mxGeometry>
        </mxCell>
        <mxCell id="dDkFH5Ff9M02Oupnt17l-258" value="&lt;div style=&quot;text-align: start;&quot;&gt;Policy&lt;/div&gt;" style="shape=table;startSize=30;container=1;collapsible=1;childLayout=tableLayout;fixedRows=1;rowLines=0;fontStyle=1;align=center;resizeLast=1;html=1;labelBackgroundColor=none;fillColor=#21C0A5;strokeColor=#006658;fontColor=#5C5C5C;rounded=1;" vertex="1" parent="1">
          <mxGeometry x="740" y="610" width="180" height="140" as="geometry" />
        </mxCell>
        <mxCell id="dDkFH5Ff9M02Oupnt17l-259" value="" style="shape=tableRow;horizontal=0;startSize=0;swimlaneHead=0;swimlaneBody=0;fillColor=none;collapsible=0;dropTarget=0;points=[[0,0.5],[1,0.5]];portConstraint=eastwest;top=0;left=0;right=0;bottom=1;labelBackgroundColor=none;strokeColor=#006658;fontColor=#5C5C5C;" vertex="1" parent="dDkFH5Ff9M02Oupnt17l-258">
          <mxGeometry y="30" width="180" height="30" as="geometry" />
        </mxCell>
        <mxCell id="dDkFH5Ff9M02Oupnt17l-260" value="PK" style="shape=partialRectangle;connectable=0;fillColor=none;top=0;left=0;bottom=0;right=0;fontStyle=1;overflow=hidden;whiteSpace=wrap;html=1;labelBackgroundColor=none;strokeColor=#006658;fontColor=#5C5C5C;" vertex="1" parent="dDkFH5Ff9M02Oupnt17l-259">
          <mxGeometry width="30" height="30" as="geometry">
            <mxRectangle width="30" height="30" as="alternateBounds" />
          </mxGeometry>
        </mxCell>
        <mxCell id="dDkFH5Ff9M02Oupnt17l-261" value="Id_policy" style="shape=partialRectangle;connectable=0;fillColor=none;top=0;left=0;bottom=0;right=0;align=left;spacingLeft=6;fontStyle=5;overflow=hidden;whiteSpace=wrap;html=1;labelBackgroundColor=none;strokeColor=#006658;fontColor=#5C5C5C;" vertex="1" parent="dDkFH5Ff9M02Oupnt17l-259">
          <mxGeometry x="30" width="150" height="30" as="geometry">
            <mxRectangle width="150" height="30" as="alternateBounds" />
          </mxGeometry>
        </mxCell>
        <mxCell id="dDkFH5Ff9M02Oupnt17l-262" value="" style="shape=tableRow;horizontal=0;startSize=0;swimlaneHead=0;swimlaneBody=0;fillColor=none;collapsible=0;dropTarget=0;points=[[0,0.5],[1,0.5]];portConstraint=eastwest;top=0;left=0;right=0;bottom=0;labelBackgroundColor=none;strokeColor=#006658;fontColor=#5C5C5C;" vertex="1" parent="dDkFH5Ff9M02Oupnt17l-258">
          <mxGeometry y="60" width="180" height="30" as="geometry" />
        </mxCell>
        <mxCell id="dDkFH5Ff9M02Oupnt17l-263" value="" style="shape=partialRectangle;connectable=0;fillColor=none;top=0;left=0;bottom=0;right=0;editable=1;overflow=hidden;whiteSpace=wrap;html=1;labelBackgroundColor=none;strokeColor=#006658;fontColor=#5C5C5C;" vertex="1" parent="dDkFH5Ff9M02Oupnt17l-262">
          <mxGeometry width="30" height="30" as="geometry">
            <mxRectangle width="30" height="30" as="alternateBounds" />
          </mxGeometry>
        </mxCell>
        <mxCell id="dDkFH5Ff9M02Oupnt17l-264" value="Contract" style="shape=partialRectangle;connectable=0;fillColor=none;top=0;left=0;bottom=0;right=0;align=left;spacingLeft=6;overflow=hidden;whiteSpace=wrap;html=1;labelBackgroundColor=none;strokeColor=#006658;fontColor=#5C5C5C;" vertex="1" parent="dDkFH5Ff9M02Oupnt17l-262">
          <mxGeometry x="30" width="150" height="30" as="geometry">
            <mxRectangle width="150" height="30" as="alternateBounds" />
          </mxGeometry>
        </mxCell>
        <mxCell id="dDkFH5Ff9M02Oupnt17l-265" value="" style="shape=tableRow;horizontal=0;startSize=0;swimlaneHead=0;swimlaneBody=0;fillColor=none;collapsible=0;dropTarget=0;points=[[0,0.5],[1,0.5]];portConstraint=eastwest;top=0;left=0;right=0;bottom=0;labelBackgroundColor=none;strokeColor=#006658;fontColor=#5C5C5C;" vertex="1" parent="dDkFH5Ff9M02Oupnt17l-258">
          <mxGeometry y="90" width="180" height="30" as="geometry" />
        </mxCell>
        <mxCell id="dDkFH5Ff9M02Oupnt17l-266" value="FK" style="shape=partialRectangle;connectable=0;fillColor=none;top=0;left=0;bottom=0;right=0;editable=1;overflow=hidden;whiteSpace=wrap;html=1;labelBackgroundColor=none;strokeColor=#006658;fontColor=#5C5C5C;" vertex="1" parent="dDkFH5Ff9M02Oupnt17l-265">
          <mxGeometry width="30" height="30" as="geometry">
            <mxRectangle width="30" height="30" as="alternateBounds" />
          </mxGeometry>
        </mxCell>
        <mxCell id="dDkFH5Ff9M02Oupnt17l-267" value="VehiclePlate" style="shape=partialRectangle;connectable=0;fillColor=none;top=0;left=0;bottom=0;right=0;align=left;spacingLeft=6;overflow=hidden;whiteSpace=wrap;html=1;labelBackgroundColor=none;strokeColor=#006658;fontColor=#5C5C5C;" vertex="1" parent="dDkFH5Ff9M02Oupnt17l-265">
          <mxGeometry x="30" width="150" height="30" as="geometry">
            <mxRectangle width="150" height="30" as="alternateBounds" />
          </mxGeometry>
        </mxCell>
        <mxCell id="dDkFH5Ff9M02Oupnt17l-271" style="shape=tableRow;horizontal=0;startSize=0;swimlaneHead=0;swimlaneBody=0;fillColor=none;collapsible=0;dropTarget=0;points=[[0,0.5],[1,0.5]];portConstraint=eastwest;top=0;left=0;right=0;bottom=0;labelBackgroundColor=none;strokeColor=#006658;fontColor=#5C5C5C;" vertex="1" parent="dDkFH5Ff9M02Oupnt17l-258">
          <mxGeometry y="120" width="180" height="20" as="geometry" />
        </mxCell>
        <mxCell id="dDkFH5Ff9M02Oupnt17l-272" value="" style="shape=partialRectangle;connectable=0;fillColor=none;top=0;left=0;bottom=0;right=0;editable=1;overflow=hidden;whiteSpace=wrap;html=1;labelBackgroundColor=none;strokeColor=#006658;fontColor=#5C5C5C;" vertex="1" parent="dDkFH5Ff9M02Oupnt17l-271">
          <mxGeometry width="30" height="20" as="geometry">
            <mxRectangle width="30" height="20" as="alternateBounds" />
          </mxGeometry>
        </mxCell>
        <mxCell id="dDkFH5Ff9M02Oupnt17l-273" value="Ceiling" style="shape=partialRectangle;connectable=0;fillColor=none;top=0;left=0;bottom=0;right=0;align=left;spacingLeft=6;overflow=hidden;whiteSpace=wrap;html=1;labelBackgroundColor=none;strokeColor=#006658;fontColor=#5C5C5C;" vertex="1" parent="dDkFH5Ff9M02Oupnt17l-271">
          <mxGeometry x="30" width="150" height="20" as="geometry">
            <mxRectangle width="150" height="20" as="alternateBounds" />
          </mxGeometry>
        </mxCell>
        <mxCell id="dDkFH5Ff9M02Oupnt17l-275" value="" style="edgeStyle=entityRelationEdgeStyle;fontSize=12;html=1;endArrow=ERmandOne;startArrow=ERmandOne;rounded=0;strokeColor=#006658;fontColor=#5C5C5C;fillColor=#21C0A5;exitX=1;exitY=0.5;exitDx=0;exitDy=0;entryX=0;entryY=0.5;entryDx=0;entryDy=0;" edge="1" parent="1" source="dDkFH5Ff9M02Oupnt17l-242" target="dDkFH5Ff9M02Oupnt17l-259">
          <mxGeometry width="100" height="100" relative="1" as="geometry">
            <mxPoint x="640" y="420" as="sourcePoint" />
            <mxPoint x="740" y="320" as="targetPoint" />
          </mxGeometry>
        </mxCell>
        <mxCell id="dDkFH5Ff9M02Oupnt17l-276" value="" style="edgeStyle=entityRelationEdgeStyle;fontSize=12;html=1;endArrow=ERmany;rounded=0;strokeColor=#006658;fontColor=#5C5C5C;fillColor=#21C0A5;entryX=0;entryY=0.5;entryDx=0;entryDy=0;exitX=1;exitY=0.5;exitDx=0;exitDy=0;" edge="1" parent="1" source="dDkFH5Ff9M02Oupnt17l-259" target="dDkFH5Ff9M02Oupnt17l-140">
          <mxGeometry width="100" height="100" relative="1" as="geometry">
            <mxPoint x="640" y="360" as="sourcePoint" />
            <mxPoint x="740" y="260" as="targetPoint" />
          </mxGeometry>
        </mxCell>
        <mxCell id="dDkFH5Ff9M02Oupnt17l-298" value="Expertise" style="shape=table;startSize=30;container=1;collapsible=1;childLayout=tableLayout;fixedRows=1;rowLines=0;fontStyle=1;align=center;resizeLast=1;html=1;miterlimit=4;swimlaneLine=1;strokeColor=#006658;rounded=1;labelBackgroundColor=none;fillColor=#21C0A5;fontColor=#5C5C5C;" vertex="1" parent="1">
          <mxGeometry x="1080" y="-300" width="180" height="150" as="geometry">
            <mxRectangle x="740" y="-80" width="80" height="30" as="alternateBounds" />
          </mxGeometry>
        </mxCell>
        <mxCell id="dDkFH5Ff9M02Oupnt17l-299" value="" style="shape=tableRow;horizontal=0;startSize=0;swimlaneHead=0;swimlaneBody=0;fillColor=none;collapsible=0;dropTarget=0;points=[[0,0.5],[1,0.5]];portConstraint=eastwest;top=0;left=0;right=0;bottom=1;labelBackgroundColor=none;strokeColor=#006658;fontColor=#5C5C5C;" vertex="1" parent="dDkFH5Ff9M02Oupnt17l-298">
          <mxGeometry y="30" width="180" height="30" as="geometry" />
        </mxCell>
        <mxCell id="dDkFH5Ff9M02Oupnt17l-300" value="PK" style="shape=partialRectangle;connectable=0;fillColor=none;top=0;left=0;bottom=0;right=0;fontStyle=1;overflow=hidden;whiteSpace=wrap;html=1;labelBackgroundColor=none;strokeColor=#006658;fontColor=#5C5C5C;" vertex="1" parent="dDkFH5Ff9M02Oupnt17l-299">
          <mxGeometry width="30" height="30" as="geometry">
            <mxRectangle width="30" height="30" as="alternateBounds" />
          </mxGeometry>
        </mxCell>
        <mxCell id="dDkFH5Ff9M02Oupnt17l-301" value="Id" style="shape=partialRectangle;connectable=0;fillColor=none;top=0;left=0;bottom=0;right=0;align=left;spacingLeft=6;fontStyle=5;overflow=hidden;whiteSpace=wrap;html=1;labelBackgroundColor=none;strokeColor=#006658;fontColor=#5C5C5C;" vertex="1" parent="dDkFH5Ff9M02Oupnt17l-299">
          <mxGeometry x="30" width="150" height="30" as="geometry">
            <mxRectangle width="150" height="30" as="alternateBounds" />
          </mxGeometry>
        </mxCell>
        <mxCell id="dDkFH5Ff9M02Oupnt17l-302" value="" style="shape=tableRow;horizontal=0;startSize=0;swimlaneHead=0;swimlaneBody=0;fillColor=none;collapsible=0;dropTarget=0;points=[[0,0.5],[1,0.5]];portConstraint=eastwest;top=0;left=0;right=0;bottom=0;swimlaneLine=0;labelBackgroundColor=none;strokeColor=#006658;fontColor=#5C5C5C;" vertex="1" parent="dDkFH5Ff9M02Oupnt17l-298">
          <mxGeometry y="60" width="180" height="30" as="geometry" />
        </mxCell>
        <mxCell id="dDkFH5Ff9M02Oupnt17l-303" value="" style="shape=partialRectangle;connectable=0;fillColor=none;top=0;left=0;bottom=0;right=0;editable=1;overflow=hidden;whiteSpace=wrap;html=1;labelBackgroundColor=none;strokeColor=#006658;fontColor=#5C5C5C;" vertex="1" parent="dDkFH5Ff9M02Oupnt17l-302">
          <mxGeometry width="30" height="30" as="geometry">
            <mxRectangle width="30" height="30" as="alternateBounds" />
          </mxGeometry>
        </mxCell>
        <mxCell id="dDkFH5Ff9M02Oupnt17l-304" value="Id_ExpertP" style="shape=partialRectangle;connectable=0;fillColor=none;top=0;left=0;bottom=0;right=0;align=left;spacingLeft=6;overflow=hidden;whiteSpace=wrap;html=1;labelBackgroundColor=none;strokeColor=#006658;fontColor=#5C5C5C;" vertex="1" parent="dDkFH5Ff9M02Oupnt17l-302">
          <mxGeometry x="30" width="150" height="30" as="geometry">
            <mxRectangle width="150" height="30" as="alternateBounds" />
          </mxGeometry>
        </mxCell>
        <mxCell id="dDkFH5Ff9M02Oupnt17l-305" value="" style="shape=tableRow;horizontal=0;startSize=0;swimlaneHead=0;swimlaneBody=0;fillColor=none;collapsible=0;dropTarget=0;points=[[0,0.5],[1,0.5]];portConstraint=eastwest;top=0;left=0;right=0;bottom=0;swimlaneLine=0;labelBackgroundColor=none;strokeColor=#006658;fontColor=#5C5C5C;" vertex="1" parent="dDkFH5Ff9M02Oupnt17l-298">
          <mxGeometry y="90" width="180" height="30" as="geometry" />
        </mxCell>
        <mxCell id="dDkFH5Ff9M02Oupnt17l-306" value="" style="shape=partialRectangle;connectable=0;fillColor=none;top=0;left=0;bottom=0;right=0;editable=1;overflow=hidden;whiteSpace=wrap;html=1;labelBackgroundColor=none;strokeColor=#006658;fontColor=#5C5C5C;" vertex="1" parent="dDkFH5Ff9M02Oupnt17l-305">
          <mxGeometry width="30" height="30" as="geometry">
            <mxRectangle width="30" height="30" as="alternateBounds" />
          </mxGeometry>
        </mxCell>
        <mxCell id="dDkFH5Ff9M02Oupnt17l-307" value="DamageEs" style="shape=partialRectangle;connectable=0;fillColor=none;top=0;left=0;bottom=0;right=0;align=left;spacingLeft=6;overflow=hidden;whiteSpace=wrap;html=1;labelBackgroundColor=none;strokeColor=#006658;fontColor=#5C5C5C;" vertex="1" parent="dDkFH5Ff9M02Oupnt17l-305">
          <mxGeometry x="30" width="150" height="30" as="geometry">
            <mxRectangle width="150" height="30" as="alternateBounds" />
          </mxGeometry>
        </mxCell>
        <mxCell id="dDkFH5Ff9M02Oupnt17l-308" value="" style="shape=tableRow;horizontal=0;startSize=0;swimlaneHead=0;swimlaneBody=0;fillColor=none;collapsible=0;dropTarget=0;points=[[0,0.5],[1,0.5]];portConstraint=eastwest;top=0;left=0;right=0;bottom=0;labelBackgroundColor=none;strokeColor=#006658;fontColor=#5C5C5C;" vertex="1" parent="dDkFH5Ff9M02Oupnt17l-298">
          <mxGeometry y="120" width="180" height="30" as="geometry" />
        </mxCell>
        <mxCell id="dDkFH5Ff9M02Oupnt17l-309" value="FK" style="shape=partialRectangle;connectable=0;fillColor=none;top=0;left=0;bottom=0;right=0;editable=1;overflow=hidden;whiteSpace=wrap;html=1;labelBackgroundColor=none;strokeColor=#006658;fontColor=#5C5C5C;" vertex="1" parent="dDkFH5Ff9M02Oupnt17l-308">
          <mxGeometry width="30" height="30" as="geometry">
            <mxRectangle width="30" height="30" as="alternateBounds" />
          </mxGeometry>
        </mxCell>
        <mxCell id="dDkFH5Ff9M02Oupnt17l-310" value="Claim_Id" style="shape=partialRectangle;connectable=0;fillColor=none;top=0;left=0;bottom=0;right=0;align=left;spacingLeft=6;overflow=hidden;whiteSpace=wrap;html=1;allowArrows=1;recursiveResize=1;labelBackgroundColor=none;strokeColor=#006658;fontColor=#5C5C5C;" vertex="1" parent="dDkFH5Ff9M02Oupnt17l-308">
          <mxGeometry x="30" width="150" height="30" as="geometry">
            <mxRectangle width="150" height="30" as="alternateBounds" />
          </mxGeometry>
        </mxCell>
        <mxCell id="dDkFH5Ff9M02Oupnt17l-315" value="" style="edgeStyle=entityRelationEdgeStyle;fontSize=12;html=1;endArrow=ERone;endFill=1;rounded=0;strokeColor=#006658;fontColor=#5C5C5C;fillColor=#21C0A5;exitX=1;exitY=0.5;exitDx=0;exitDy=0;entryX=0;entryY=0.5;entryDx=0;entryDy=0;" edge="1" parent="1" source="dDkFH5Ff9M02Oupnt17l-281" target="dDkFH5Ff9M02Oupnt17l-308">
          <mxGeometry width="100" height="100" relative="1" as="geometry">
            <mxPoint x="960" y="280" as="sourcePoint" />
            <mxPoint x="1060" y="180" as="targetPoint" />
          </mxGeometry>
        </mxCell>
        <mxCell id="dDkFH5Ff9M02Oupnt17l-316" value="InsuranceAgent" style="shape=table;startSize=30;container=1;collapsible=1;childLayout=tableLayout;fixedRows=1;rowLines=0;fontStyle=1;align=center;resizeLast=1;html=1;miterlimit=4;swimlaneLine=1;strokeColor=#006658;rounded=1;labelBackgroundColor=none;fillColor=#21C0A5;fontColor=#5C5C5C;" vertex="1" parent="1">
          <mxGeometry x="660" y="850" width="180" height="150" as="geometry">
            <mxRectangle x="740" y="-80" width="80" height="30" as="alternateBounds" />
          </mxGeometry>
        </mxCell>
        <mxCell id="dDkFH5Ff9M02Oupnt17l-317" value="" style="shape=tableRow;horizontal=0;startSize=0;swimlaneHead=0;swimlaneBody=0;fillColor=none;collapsible=0;dropTarget=0;points=[[0,0.5],[1,0.5]];portConstraint=eastwest;top=0;left=0;right=0;bottom=1;labelBackgroundColor=none;strokeColor=#006658;fontColor=#5C5C5C;" vertex="1" parent="dDkFH5Ff9M02Oupnt17l-316">
          <mxGeometry y="30" width="180" height="30" as="geometry" />
        </mxCell>
        <mxCell id="dDkFH5Ff9M02Oupnt17l-318" value="PK" style="shape=partialRectangle;connectable=0;fillColor=none;top=0;left=0;bottom=0;right=0;fontStyle=1;overflow=hidden;whiteSpace=wrap;html=1;labelBackgroundColor=none;strokeColor=#006658;fontColor=#5C5C5C;" vertex="1" parent="dDkFH5Ff9M02Oupnt17l-317">
          <mxGeometry width="30" height="30" as="geometry">
            <mxRectangle width="30" height="30" as="alternateBounds" />
          </mxGeometry>
        </mxCell>
        <mxCell id="dDkFH5Ff9M02Oupnt17l-319" value="Id" style="shape=partialRectangle;connectable=0;fillColor=none;top=0;left=0;bottom=0;right=0;align=left;spacingLeft=6;fontStyle=5;overflow=hidden;whiteSpace=wrap;html=1;labelBackgroundColor=none;strokeColor=#006658;fontColor=#5C5C5C;" vertex="1" parent="dDkFH5Ff9M02Oupnt17l-317">
          <mxGeometry x="30" width="150" height="30" as="geometry">
            <mxRectangle width="150" height="30" as="alternateBounds" />
          </mxGeometry>
        </mxCell>
        <mxCell id="dDkFH5Ff9M02Oupnt17l-320" value="" style="shape=tableRow;horizontal=0;startSize=0;swimlaneHead=0;swimlaneBody=0;fillColor=none;collapsible=0;dropTarget=0;points=[[0,0.5],[1,0.5]];portConstraint=eastwest;top=0;left=0;right=0;bottom=0;swimlaneLine=0;labelBackgroundColor=none;strokeColor=#006658;fontColor=#5C5C5C;" vertex="1" parent="dDkFH5Ff9M02Oupnt17l-316">
          <mxGeometry y="60" width="180" height="30" as="geometry" />
        </mxCell>
        <mxCell id="dDkFH5Ff9M02Oupnt17l-321" value="FK" style="shape=partialRectangle;connectable=0;fillColor=none;top=0;left=0;bottom=0;right=0;editable=1;overflow=hidden;whiteSpace=wrap;html=1;labelBackgroundColor=none;strokeColor=#006658;fontColor=#5C5C5C;" vertex="1" parent="dDkFH5Ff9M02Oupnt17l-320">
          <mxGeometry width="30" height="30" as="geometry">
            <mxRectangle width="30" height="30" as="alternateBounds" />
          </mxGeometry>
        </mxCell>
        <mxCell id="dDkFH5Ff9M02Oupnt17l-322" value="Counterpart_id" style="shape=partialRectangle;connectable=0;fillColor=none;top=0;left=0;bottom=0;right=0;align=left;spacingLeft=6;overflow=hidden;whiteSpace=wrap;html=1;labelBackgroundColor=none;strokeColor=#006658;fontColor=#5C5C5C;" vertex="1" parent="dDkFH5Ff9M02Oupnt17l-320">
          <mxGeometry x="30" width="150" height="30" as="geometry">
            <mxRectangle width="150" height="30" as="alternateBounds" />
          </mxGeometry>
        </mxCell>
        <mxCell id="dDkFH5Ff9M02Oupnt17l-323" value="" style="shape=tableRow;horizontal=0;startSize=0;swimlaneHead=0;swimlaneBody=0;fillColor=none;collapsible=0;dropTarget=0;points=[[0,0.5],[1,0.5]];portConstraint=eastwest;top=0;left=0;right=0;bottom=0;swimlaneLine=0;labelBackgroundColor=none;strokeColor=#006658;fontColor=#5C5C5C;" vertex="1" parent="dDkFH5Ff9M02Oupnt17l-316">
          <mxGeometry y="90" width="180" height="30" as="geometry" />
        </mxCell>
        <mxCell id="dDkFH5Ff9M02Oupnt17l-324" value="FK" style="shape=partialRectangle;connectable=0;fillColor=none;top=0;left=0;bottom=0;right=0;editable=1;overflow=hidden;whiteSpace=wrap;html=1;labelBackgroundColor=none;strokeColor=#006658;fontColor=#5C5C5C;" vertex="1" parent="dDkFH5Ff9M02Oupnt17l-323">
          <mxGeometry width="30" height="30" as="geometry">
            <mxRectangle width="30" height="30" as="alternateBounds" />
          </mxGeometry>
        </mxCell>
        <mxCell id="dDkFH5Ff9M02Oupnt17l-325" value="Id_Claim" style="shape=partialRectangle;connectable=0;fillColor=none;top=0;left=0;bottom=0;right=0;align=left;spacingLeft=6;overflow=hidden;whiteSpace=wrap;html=1;labelBackgroundColor=none;strokeColor=#006658;fontColor=#5C5C5C;" vertex="1" parent="dDkFH5Ff9M02Oupnt17l-323">
          <mxGeometry x="30" width="150" height="30" as="geometry">
            <mxRectangle width="150" height="30" as="alternateBounds" />
          </mxGeometry>
        </mxCell>
        <mxCell id="dDkFH5Ff9M02Oupnt17l-326" value="" style="shape=tableRow;horizontal=0;startSize=0;swimlaneHead=0;swimlaneBody=0;fillColor=none;collapsible=0;dropTarget=0;points=[[0,0.5],[1,0.5]];portConstraint=eastwest;top=0;left=0;right=0;bottom=0;labelBackgroundColor=none;strokeColor=#006658;fontColor=#5C5C5C;" vertex="1" parent="dDkFH5Ff9M02Oupnt17l-316">
          <mxGeometry y="120" width="180" height="30" as="geometry" />
        </mxCell>
        <mxCell id="dDkFH5Ff9M02Oupnt17l-327" value="" style="shape=partialRectangle;connectable=0;fillColor=none;top=0;left=0;bottom=0;right=0;editable=1;overflow=hidden;whiteSpace=wrap;html=1;labelBackgroundColor=none;strokeColor=#006658;fontColor=#5C5C5C;" vertex="1" parent="dDkFH5Ff9M02Oupnt17l-326">
          <mxGeometry width="30" height="30" as="geometry">
            <mxRectangle width="30" height="30" as="alternateBounds" />
          </mxGeometry>
        </mxCell>
        <mxCell id="dDkFH5Ff9M02Oupnt17l-328" value="" style="shape=partialRectangle;connectable=0;fillColor=none;top=0;left=0;bottom=0;right=0;align=left;spacingLeft=6;overflow=hidden;whiteSpace=wrap;html=1;allowArrows=1;recursiveResize=1;labelBackgroundColor=none;strokeColor=#006658;fontColor=#5C5C5C;" vertex="1" parent="dDkFH5Ff9M02Oupnt17l-326">
          <mxGeometry x="30" width="150" height="30" as="geometry">
            <mxRectangle width="150" height="30" as="alternateBounds" />
          </mxGeometry>
        </mxCell>
        <mxCell id="dDkFH5Ff9M02Oupnt17l-330" value="" style="edgeStyle=entityRelationEdgeStyle;fontSize=12;html=1;endArrow=ERmandOne;startArrow=ERmandOne;rounded=0;strokeColor=#006658;fontColor=#5C5C5C;fillColor=#21C0A5;exitX=1;exitY=0.5;exitDx=0;exitDy=0;entryX=0;entryY=0.5;entryDx=0;entryDy=0;" edge="1" parent="1" source="dDkFH5Ff9M02Oupnt17l-205" target="dDkFH5Ff9M02Oupnt17l-320">
          <mxGeometry width="100" height="100" relative="1" as="geometry">
            <mxPoint x="1010" y="620" as="sourcePoint" />
            <mxPoint x="1110" y="520" as="targetPoint" />
          </mxGeometry>
        </mxCell>
        <mxCell id="dDkFH5Ff9M02Oupnt17l-333" style="edgeStyle=orthogonalEdgeStyle;rounded=0;orthogonalLoop=1;jettySize=auto;html=1;exitX=0;exitY=0.5;exitDx=0;exitDy=0;entryX=0;entryY=0.5;entryDx=0;entryDy=0;strokeColor=#006658;fontColor=#5C5C5C;fillColor=#21C0A5;" edge="1" parent="1" source="dDkFH5Ff9M02Oupnt17l-156" target="dDkFH5Ff9M02Oupnt17l-196">
          <mxGeometry relative="1" as="geometry" />
        </mxCell>
        <mxCell id="dDkFH5Ff9M02Oupnt17l-352" style="edgeStyle=orthogonalEdgeStyle;rounded=0;orthogonalLoop=1;jettySize=auto;html=1;exitX=1;exitY=0.5;exitDx=0;exitDy=0;entryX=0;entryY=0.5;entryDx=0;entryDy=0;strokeColor=#006658;fontColor=#5C5C5C;fillColor=#21C0A5;" edge="1" parent="1" source="dDkFH5Ff9M02Oupnt17l-252" target="dDkFH5Ff9M02Oupnt17l-265">
          <mxGeometry relative="1" as="geometry">
            <Array as="points">
              <mxPoint x="350" y="540" />
              <mxPoint x="350" y="810" />
              <mxPoint x="740" y="810" />
            </Array>
          </mxGeometry>
        </mxCell>
        <mxCell id="dDkFH5Ff9M02Oupnt17l-365" style="edgeStyle=orthogonalEdgeStyle;rounded=0;orthogonalLoop=1;jettySize=auto;html=1;exitX=1;exitY=0.5;exitDx=0;exitDy=0;entryX=0;entryY=0.5;entryDx=0;entryDy=0;strokeColor=#006658;fontColor=#5C5C5C;fillColor=#21C0A5;" edge="1" parent="1" source="dDkFH5Ff9M02Oupnt17l-58" target="dDkFH5Ff9M02Oupnt17l-160">
          <mxGeometry relative="1" as="geometry" />
        </mxCell>
        <mxCell id="dDkFH5Ff9M02Oupnt17l-366" style="edgeStyle=orthogonalEdgeStyle;rounded=0;orthogonalLoop=1;jettySize=auto;html=1;exitX=1;exitY=0.5;exitDx=0;exitDy=0;entryX=0;entryY=0.5;entryDx=0;entryDy=0;strokeColor=#006658;fontColor=#5C5C5C;fillColor=#21C0A5;" edge="1" parent="1" source="dDkFH5Ff9M02Oupnt17l-334" target="dDkFH5Ff9M02Oupnt17l-121">
          <mxGeometry relative="1" as="geometry">
            <Array as="points">
              <mxPoint x="300" y="-405" />
              <mxPoint x="300" y="-300" />
              <mxPoint x="640" y="-300" />
              <mxPoint x="640" y="-225" />
            </Array>
          </mxGeometry>
        </mxCell>
        <mxCell id="dDkFH5Ff9M02Oupnt17l-367" style="edgeStyle=orthogonalEdgeStyle;rounded=0;orthogonalLoop=1;jettySize=auto;html=1;exitX=1;exitY=0.5;exitDx=0;exitDy=0;entryX=0;entryY=0.5;entryDx=0;entryDy=0;strokeColor=#006658;fontColor=#5C5C5C;fillColor=#21C0A5;" edge="1" parent="1" source="dDkFH5Ff9M02Oupnt17l-124" target="dDkFH5Ff9M02Oupnt17l-299">
          <mxGeometry relative="1" as="geometry" />
        </mxCell>
        <mxCell id="dDkFH5Ff9M02Oupnt17l-370" style="edgeStyle=orthogonalEdgeStyle;rounded=0;orthogonalLoop=1;jettySize=auto;html=1;exitX=1;exitY=0.5;exitDx=0;exitDy=0;entryX=0;entryY=0.5;entryDx=0;entryDy=0;strokeColor=#006658;fontColor=#5C5C5C;fillColor=#21C0A5;" edge="1" parent="1" source="dDkFH5Ff9M02Oupnt17l-337" target="dDkFH5Ff9M02Oupnt17l-134">
          <mxGeometry relative="1" as="geometry" />
        </mxCell>
        <mxCell id="dDkFH5Ff9M02Oupnt17l-376" style="edgeStyle=orthogonalEdgeStyle;rounded=0;orthogonalLoop=1;jettySize=auto;html=1;exitX=0;exitY=0.5;exitDx=0;exitDy=0;entryX=0;entryY=0.5;entryDx=0;entryDy=0;strokeColor=#006658;fontColor=#5C5C5C;fillColor=#21C0A5;" edge="1" parent="1" source="dDkFH5Ff9M02Oupnt17l-371" target="dDkFH5Ff9M02Oupnt17l-147">
          <mxGeometry relative="1" as="geometry" />
        </mxCell>
        <mxCell id="dDkFH5Ff9M02Oupnt17l-381" style="edgeStyle=orthogonalEdgeStyle;rounded=0;orthogonalLoop=1;jettySize=auto;html=1;exitX=0;exitY=0.5;exitDx=0;exitDy=0;strokeColor=#006658;fontColor=#5C5C5C;fillColor=#21C0A5;" edge="1" parent="1" source="dDkFH5Ff9M02Oupnt17l-378" target="dDkFH5Ff9M02Oupnt17l-181">
          <mxGeometry relative="1" as="geometry" />
        </mxCell>
        <mxCell id="dDkFH5Ff9M02Oupnt17l-386" style="edgeStyle=orthogonalEdgeStyle;rounded=0;orthogonalLoop=1;jettySize=auto;html=1;exitX=0;exitY=0.5;exitDx=0;exitDy=0;entryX=0;entryY=0.5;entryDx=0;entryDy=0;strokeColor=#006658;fontColor=#5C5C5C;fillColor=#21C0A5;" edge="1" parent="1" source="dDkFH5Ff9M02Oupnt17l-382" target="dDkFH5Ff9M02Oupnt17l-317">
          <mxGeometry relative="1" as="geometry" />
        </mxCell>
        <mxCell id="dDkFH5Ff9M02Oupnt17l-387" style="edgeStyle=orthogonalEdgeStyle;rounded=0;orthogonalLoop=1;jettySize=auto;html=1;exitX=1;exitY=0.5;exitDx=0;exitDy=0;strokeColor=#006658;fontColor=#5C5C5C;fillColor=#21C0A5;" edge="1" parent="1" source="dDkFH5Ff9M02Oupnt17l-323" target="dDkFH5Ff9M02Oupnt17l-147">
          <mxGeometry relative="1" as="geometry" />
        </mxCell>
        <mxCell id="dDkFH5Ff9M02Oupnt17l-388" style="edgeStyle=orthogonalEdgeStyle;rounded=0;orthogonalLoop=1;jettySize=auto;html=1;exitX=0;exitY=0.5;exitDx=0;exitDy=0;entryX=0;entryY=0.5;entryDx=0;entryDy=0;strokeColor=#006658;fontColor=#5C5C5C;fillColor=#21C0A5;" edge="1" parent="1" source="dDkFH5Ff9M02Oupnt17l-199" target="dDkFH5Ff9M02Oupnt17l-92">
          <mxGeometry relative="1" as="geometry">
            <Array as="points">
              <mxPoint x="280" y="685" />
              <mxPoint x="280" y="810" />
              <mxPoint x="-180" y="810" />
              <mxPoint x="-180" y="-25" />
            </Array>
          </mxGeometry>
        </mxCell>
      </root>
    </mxGraphModel>
  </diagram>
</mxfile>
